<?xml version="1.0" standalone="no"?>
<!DOCTYPE svg PUBLIC "-//W3C//DTD SVG 20010904//EN"
 "http://www.w3.org/TR/2001/REC-SVG-20010904/DTD/svg10.dtd">
<svg version="1.0" xmlns="http://www.w3.org/2000/svg"
 width="1720.000000pt" height="1720.000000pt" viewBox="0 0 1720.000000 1720.000000"
 preserveAspectRatio="xMidYMid meet">

<g transform="translate(0.000000,1720.000000) scale(0.100000,-0.100000)"
fill="#000000" stroke="none">
<path d="M8270 16553 c-36 -14 -85 -33 -110 -42 -55 -20 -122 -54 -147 -75
-10 -9 -54 -42 -97 -75 -114 -86 -155 -95 -371 -86 -239 10 -311 -1 -445 -67
-58 -28 -117 -60 -132 -71 -25 -19 -29 -19 -115 -4 -161 29 -470 42 -588 26
-142 -20 -198 -42 -305 -116 -34 -24 -151 -133 -169 -158 -9 -11 -48 -54 -87
-95 -40 -41 -83 -88 -96 -105 -26 -31 -114 -161 -134 -196 -16 -28 -67 -64
-111 -77 -101 -30 -260 -63 -325 -68 -97 -6 -330 -29 -398 -40 -102 -15 -428
-178 -640 -319 -162 -108 -355 -290 -446 -420 -26 -37 -123 -227 -203 -397
-32 -70 -80 -155 -107 -189 -49 -64 -142 -159 -155 -159 -4 0 -14 -6 -21 -13
-21 -20 -82 -57 -188 -114 -24 -13 -54 -32 -65 -42 -11 -9 -33 -26 -50 -36
-47 -29 -135 -106 -135 -119 0 -6 -8 -16 -19 -23 -25 -16 -99 -122 -148 -213
-34 -64 -62 -138 -123 -336 -6 -17 -10 -40 -10 -52 0 -62 -111 -197 -278 -337
-75 -63 -116 -124 -165 -245 -32 -80 -39 -108 -40 -174 l-2 -79 45 -24 c25
-14 72 -39 105 -56 33 -17 71 -38 85 -47 14 -9 52 -27 85 -40 33 -13 65 -27
70 -31 6 -4 109 -58 230 -120 121 -62 261 -134 310 -161 50 -26 110 -58 135
-71 178 -93 266 -140 275 -147 6 -4 71 -39 145 -77 74 -39 203 -105 285 -148
275 -143 325 -166 336 -159 7 4 9 3 6 -3 -3 -5 27 -27 68 -49 40 -21 98 -52
129 -69 30 -16 97 -52 148 -78 51 -27 129 -68 173 -92 44 -24 121 -64 170 -89
50 -26 119 -62 155 -82 36 -19 119 -64 185 -98 66 -34 129 -67 140 -73 11 -7
79 -39 150 -73 72 -33 137 -65 145 -70 8 -5 43 -25 77 -45 34 -19 65 -40 68
-45 3 -6 14 -10 23 -10 15 0 365 -166 402 -190 8 -6 29 -17 45 -26 17 -8 53
-28 80 -45 28 -16 57 -32 65 -35 8 -3 23 -10 32 -15 119 -63 267 -139 538
-276 179 -91 330 -168 335 -173 6 -4 181 -94 390 -200 209 -105 384 -195 390
-201 5 -5 15 -9 22 -9 7 0 42 -18 77 -39 36 -21 91 -51 123 -65 32 -15 65 -31
73 -36 8 -5 42 -22 75 -38 33 -16 78 -41 100 -56 22 -15 90 -52 151 -82 61
-30 117 -60 123 -68 20 -24 -4 -63 -51 -85 -142 -64 -272 -123 -333 -151 -38
-17 -99 -45 -135 -61 -36 -17 -72 -34 -80 -39 -8 -5 -28 -16 -45 -23 -16 -8
-64 -30 -105 -50 -41 -19 -100 -45 -130 -57 -52 -21 -105 -44 -245 -110 -33
-15 -80 -37 -105 -48 -25 -11 -116 -54 -202 -96 -86 -42 -159 -76 -162 -76 -5
0 -100 -44 -248 -114 -32 -15 -63 -24 -69 -21 -6 4 -17 -2 -24 -12 -8 -11 -36
-28 -62 -38 -26 -10 -113 -50 -193 -88 -80 -38 -189 -89 -243 -113 -54 -25
-133 -62 -175 -84 -43 -21 -102 -48 -132 -60 -53 -21 -218 -99 -425 -201 -55
-27 -104 -49 -109 -49 -5 0 -32 -11 -60 -24 -28 -14 -118 -55 -201 -92 -82
-37 -162 -76 -177 -86 -14 -10 -29 -18 -34 -18 -8 0 -57 -23 -229 -105 -60
-29 -146 -69 -190 -89 -93 -43 -214 -100 -268 -127 -21 -11 -42 -19 -48 -19
-6 0 -49 -19 -97 -41 -76 -36 -176 -83 -402 -186 -30 -14 -73 -33 -95 -43 -22
-10 -55 -25 -74 -34 -19 -9 -40 -16 -48 -16 -7 0 -13 -4 -13 -10 0 -5 -5 -10
-11 -10 -11 0 -258 -108 -274 -120 -5 -4 -59 -29 -120 -55 -112 -48 -180 -78
-270 -120 -134 -62 -275 -125 -281 -125 -3 0 -34 -13 -68 -29 -33 -16 -101
-46 -151 -66 -91 -37 -109 -45 -247 -109 -42 -20 -81 -36 -86 -36 -14 0 -92
-80 -92 -94 0 -55 24 -193 35 -209 8 -12 15 -27 15 -33 0 -12 32 -82 83 -181
30 -59 107 -151 222 -268 27 -27 63 -68 80 -91 16 -22 53 -60 80 -85 28 -24
53 -48 57 -54 3 -5 23 -28 44 -50 127 -137 216 -247 331 -409 13 -17 33 -45
45 -62 45 -62 98 -145 98 -153 0 -4 9 -16 20 -26 11 -10 20 -22 20 -27 0 -5
40 -69 90 -141 91 -135 228 -285 380 -418 72 -64 230 -179 245 -179 3 0 12 -6
20 -12 274 -263 356 -342 399 -386 321 -332 521 -514 616 -559 8 -4 49 -27 89
-51 41 -24 84 -48 95 -53 25 -11 59 -32 66 -40 6 -8 208 -107 275 -135 62 -27
246 -84 269 -84 9 0 31 -8 49 -17 18 -10 39 -18 47 -18 55 -2 172 -35 410
-114 52 -18 120 -39 150 -47 30 -8 63 -19 72 -24 10 -6 22 -10 27 -10 5 0 38
-13 73 -29 71 -32 156 -70 163 -71 2 -1 28 -14 57 -31 72 -40 220 -111 299
-143 75 -31 103 -43 144 -61 124 -56 145 -63 280 -99 50 -13 117 -31 150 -40
60 -17 261 -61 345 -76 25 -5 108 -20 185 -34 230 -43 305 -54 410 -60 55 -4
143 -9 195 -12 110 -7 415 10 575 31 106 13 303 55 355 74 14 5 43 12 65 16
126 20 240 57 428 141 53 24 103 44 110 44 7 0 33 13 58 28 57 37 171 55 294
49 129 -7 492 10 615 29 172 26 380 83 477 131 64 30 89 36 210 49 76 7 172
20 213 28 41 9 120 22 174 31 182 29 326 69 420 117 47 24 228 141 248 161 7
7 30 25 51 39 30 20 343 313 416 389 9 9 39 49 66 88 28 40 66 92 85 115 19
24 44 55 55 70 16 21 32 28 80 35 33 5 74 13 90 19 17 5 68 22 115 38 110 36
199 95 319 212 35 34 68 62 72 62 7 0 187 190 280 296 24 28 59 80 78 115 18
35 48 81 67 103 19 22 34 43 34 48 0 4 7 16 15 25 8 10 15 22 14 27 0 5 3 12
8 15 38 26 285 518 338 671 13 38 44 94 74 133 28 37 51 75 51 83 0 7 4 14 8
14 5 0 24 14 43 31 19 17 77 64 129 104 175 134 209 168 432 438 38 45 68 87
68 93 0 6 7 17 16 25 38 32 142 301 164 429 8 42 11 172 9 371 -3 272 -2 310
13 326 9 10 23 34 31 53 8 19 39 63 69 96 29 34 82 98 118 143 36 45 70 88 75
94 32 36 127 193 162 267 90 189 141 310 153 361 6 30 23 92 37 139 87 292
105 432 84 657 -7 76 -19 156 -26 178 -7 22 -13 56 -14 77 0 20 -5 66 -11 103
-8 53 -7 105 5 234 9 91 17 181 19 199 1 19 -1 56 -5 84 -5 33 -4 58 3 71 6
12 12 98 14 203 3 153 1 200 -16 284 -11 55 -27 111 -36 125 -9 13 -13 29 -9
34 3 6 -1 23 -9 39 -8 15 -18 46 -22 67 -9 50 -69 180 -101 218 -12 16 -23 35
-23 42 0 13 -76 131 -108 168 -13 15 -14 25 -4 65 23 95 24 155 3 276 -11 65
-27 129 -36 142 -8 13 -15 28 -15 34 0 6 -11 35 -24 63 -13 29 -43 97 -68 152
-24 55 -62 126 -84 159 -21 32 -52 79 -69 105 -16 26 -41 63 -55 82 -14 19
-32 48 -40 64 -8 17 -22 41 -32 54 -12 15 -18 42 -18 75 -1 58 -7 91 -45 226
-14 52 -32 118 -39 145 -8 28 -24 84 -36 125 -23 80 -27 94 -61 235 -22 91
-59 204 -85 262 -8 17 -14 34 -14 37 0 4 -8 19 -19 34 -10 15 -58 90 -106 167
-102 163 -133 211 -158 239 -9 12 -40 50 -68 86 -154 195 -522 589 -617 659
-189 139 -256 195 -320 265 -73 81 -87 100 -118 166 -38 83 -64 141 -64 145 0
16 -73 121 -126 180 -74 84 -80 89 -169 162 -38 32 -72 61 -73 66 -3 6 -37 29
-127 85 -23 14 -81 42 -138 67 -21 9 -61 21 -90 26 -65 11 -64 11 -107 32 -26
13 -122 37 -145 37 -2 0 -6 12 -10 27 -3 15 -21 44 -38 64 -18 20 -43 52 -57
70 -52 71 -123 131 -190 162 -87 39 -244 79 -355 89 -63 5 -125 17 -145 26
-23 12 -55 46 -97 107 -35 50 -66 95 -71 100 -98 124 -126 157 -138 162 -8 3
-14 11 -14 18 0 13 -40 53 -170 172 -65 60 -206 159 -290 203 -25 14 -52 30
-60 36 -63 48 -347 173 -454 200 -151 38 -317 68 -426 78 -30 3 -109 10 -174
17 -65 6 -149 9 -185 5 -36 -3 -107 -10 -157 -15 -50 -5 -106 -17 -124 -26
-17 -9 -44 -17 -60 -17 -37 -1 -194 79 -273 140 -135 102 -220 150 -322 179
-120 35 -165 37 -371 19 -224 -20 -274 -17 -377 18 -67 24 -209 47 -272 45
-11 0 -49 -12 -85 -26z m232 -63 c31 -6 83 -21 115 -34 65 -27 202 -36 323
-22 36 4 124 9 197 12 122 4 137 2 210 -22 43 -14 101 -38 128 -53 28 -15 66
-36 85 -47 19 -10 40 -27 48 -36 24 -32 177 -126 232 -143 30 -10 62 -26 72
-36 21 -25 42 -24 114 5 33 14 97 30 142 36 84 11 292 15 347 6 17 -2 62 -7
100 -11 317 -28 479 -65 665 -152 259 -121 414 -217 579 -362 57 -50 108 -88
114 -84 5 3 7 2 4 -4 -3 -5 16 -35 43 -66 28 -30 50 -57 50 -60 0 -3 9 -16 19
-29 11 -12 33 -39 49 -58 16 -19 32 -45 36 -57 4 -13 11 -23 15 -23 4 0 13
-12 20 -26 18 -41 94 -131 120 -144 23 -10 69 -18 241 -40 110 -15 228 -49
290 -87 68 -41 82 -52 150 -132 30 -35 65 -75 78 -87 12 -13 22 -33 22 -44 0
-29 44 -70 75 -70 52 0 287 -62 355 -93 99 -46 271 -179 398 -307 74 -75 90
-97 139 -200 85 -179 86 -182 117 -230 40 -61 150 -179 211 -227 28 -22 89
-65 135 -96 79 -51 200 -161 279 -253 18 -21 84 -91 145 -155 61 -63 127 -135
146 -159 19 -24 46 -55 60 -70 52 -54 152 -184 213 -278 87 -134 99 -153 117
-184 8 -15 29 -52 47 -82 58 -97 105 -233 153 -441 20 -90 31 -131 89 -340 40
-141 61 -267 56 -330 -4 -46 -2 -52 31 -85 36 -35 114 -151 114 -168 0 -5 7
-15 16 -23 28 -23 82 -113 133 -224 29 -60 62 -132 75 -160 13 -27 27 -68 31
-90 3 -22 13 -60 22 -85 8 -26 15 -85 16 -140 2 -85 -1 -101 -26 -151 -15 -31
-27 -58 -27 -61 0 -4 15 -15 33 -25 30 -18 69 -73 149 -211 32 -54 35 -60 78
-167 18 -44 39 -93 47 -110 52 -111 77 -396 53 -615 -5 -52 -10 -147 -10 -210
-1 -63 -7 -166 -14 -229 -9 -89 -10 -130 0 -190 6 -42 14 -110 17 -151 2 -41
13 -149 22 -240 17 -156 17 -172 1 -285 -28 -201 -33 -226 -70 -344 -20 -62
-36 -119 -36 -126 0 -13 -19 -59 -71 -173 -16 -35 -29 -69 -29 -75 0 -7 -23
-56 -50 -110 -71 -140 -147 -252 -236 -350 -24 -26 -49 -58 -56 -71 -19 -34
-75 -102 -141 -169 l-58 -59 3 -321 c3 -328 1 -373 -26 -486 -8 -36 -13 -68
-10 -73 3 -4 1 -8 -4 -8 -5 0 -14 -18 -21 -39 -11 -37 -23 -63 -95 -195 -73
-136 -297 -371 -517 -545 -70 -55 -139 -114 -153 -133 -14 -18 -50 -64 -80
-102 -30 -39 -62 -90 -71 -115 -69 -194 -298 -652 -384 -771 -59 -81 -111
-159 -111 -167 0 -18 -177 -229 -271 -322 -125 -126 -265 -238 -346 -279 -69
-36 -215 -76 -278 -76 -56 -1 -64 -4 -99 -38 -21 -20 -50 -54 -64 -76 -15 -22
-53 -78 -85 -125 -63 -95 -291 -331 -422 -438 -92 -76 -221 -169 -234 -169 -5
0 -14 -7 -22 -16 -32 -38 -254 -119 -394 -143 -143 -24 -190 -33 -210 -37 -11
-3 -108 -15 -215 -28 -155 -18 -206 -28 -250 -48 -80 -37 -167 -68 -193 -68
-13 0 -27 -4 -33 -10 -5 -5 -39 -16 -74 -24 -36 -7 -97 -21 -135 -29 -81 -18
-412 -37 -625 -37 -80 0 -158 -1 -175 -3 -104 -13 -180 -34 -215 -59 -14 -10
-79 -40 -145 -68 -66 -28 -133 -57 -150 -65 -79 -35 -110 -45 -139 -45 -18 0
-55 -6 -82 -14 -27 -8 -69 -17 -93 -20 -24 -4 -49 -10 -55 -13 -6 -4 -26 -8
-45 -10 -19 -2 -41 -9 -48 -15 -7 -6 -13 -8 -13 -5 0 3 -23 -1 -51 -8 -27 -7
-101 -19 -162 -25 -62 -6 -125 -13 -142 -16 -16 -2 -111 -7 -210 -11 -209 -7
-410 7 -625 44 -80 13 -172 28 -205 33 -111 16 -418 80 -501 105 -135 39 -160
46 -174 49 -21 4 -49 14 -98 37 -23 10 -47 19 -52 19 -5 0 -37 13 -72 29 -35
17 -92 42 -128 56 -36 15 -152 69 -258 121 -106 52 -197 94 -202 94 -6 0 -41
15 -79 34 -38 19 -93 39 -122 45 -29 6 -57 15 -63 20 -10 7 -79 30 -286 93
-36 11 -74 24 -85 29 -11 5 -46 15 -77 23 -31 8 -65 19 -75 24 -10 5 -52 14
-93 21 -41 7 -82 16 -90 21 -9 4 -31 11 -50 15 -47 10 -231 84 -251 101 -8 8
-20 14 -25 14 -5 0 -22 7 -39 16 -16 9 -70 38 -120 64 -124 66 -284 160 -323
190 -40 31 -160 139 -221 200 -25 25 -60 57 -79 72 -18 15 -61 60 -95 101 -34
41 -102 112 -151 158 -49 46 -130 125 -180 174 -123 122 -158 152 -246 213
-187 128 -272 203 -425 372 -71 78 -165 193 -165 202 0 9 -137 230 -179 288
-85 119 -127 174 -219 290 -57 71 -113 138 -126 147 -13 10 -36 39 -51 63 -16
25 -37 52 -49 59 -36 26 -181 179 -276 292 -25 29 -62 72 -84 96 -41 46 -60
75 -104 163 -15 30 -29 57 -32 60 -17 17 -56 152 -63 215 l-5 50 56 29 c31 16
122 57 202 91 80 35 174 76 210 93 104 48 102 47 188 6 42 -21 93 -48 112 -59
19 -12 62 -37 95 -55 58 -31 274 -204 305 -243 8 -10 80 -84 160 -165 80 -81
168 -174 195 -206 28 -32 65 -76 83 -96 17 -21 32 -41 32 -46 0 -5 14 -26 31
-46 71 -87 155 -293 205 -503 8 -33 30 -83 49 -110 34 -50 175 -195 190 -195
4 0 27 -17 50 -37 24 -21 65 -51 91 -67 276 -165 400 -307 445 -509 17 -77 36
-130 81 -223 24 -50 178 -179 299 -250 24 -14 64 -38 89 -54 25 -17 56 -35 70
-42 14 -7 27 -15 30 -18 10 -10 126 -69 189 -95 76 -31 206 -48 288 -37 35 5
116 4 196 -3 75 -6 156 -10 179 -8 24 2 54 4 68 4 28 1 158 -32 205 -51 17 -7
39 -16 50 -21 23 -9 150 -48 240 -74 69 -20 375 -165 422 -201 17 -13 36 -24
41 -24 6 0 12 -4 14 -8 2 -5 26 -24 53 -42 54 -37 90 -71 145 -138 19 -23 53
-61 74 -85 21 -23 52 -70 67 -104 32 -72 35 -73 133 -47 86 23 306 23 406 0
41 -10 84 -19 95 -20 47 -7 222 -48 237 -57 10 -5 29 -9 42 -9 14 0 28 -5 31
-10 3 -5 15 -10 25 -10 11 0 34 -6 52 -14 41 -18 372 -123 413 -131 17 -3 41
-8 55 -11 14 -3 54 -10 90 -15 36 -6 92 -15 125 -20 98 -16 372 -3 505 25 143
30 192 49 515 201 28 13 93 40 145 61 360 139 402 157 553 228 54 25 103 46
110 46 7 0 17 4 23 9 5 5 59 25 119 44 106 34 189 50 325 62 209 19 360 40
470 67 69 16 133 31 143 33 41 9 172 103 240 172 54 56 76 83 134 168 15 22
35 49 44 60 9 11 25 34 36 52 10 17 32 55 49 85 32 55 152 172 235 230 26 18
89 63 140 99 102 72 149 94 279 132 126 37 326 85 380 93 132 18 213 36 257
58 62 31 156 122 205 197 49 75 130 263 167 389 66 222 85 280 146 445 35 94
66 181 70 195 4 14 16 39 26 57 11 17 39 71 64 120 45 92 68 129 173 285 116
174 148 209 272 303 165 124 346 235 387 235 6 0 20 15 31 33 18 30 19 37 6
117 -26 170 -28 252 -9 311 29 88 63 144 205 340 41 57 88 126 104 153 15 27
39 61 53 75 25 27 163 252 163 266 0 4 11 32 26 60 33 69 51 189 53 355 1 74
8 196 17 271 16 148 13 353 -6 453 -17 88 -101 254 -181 359 -57 75 -138 247
-161 341 -29 120 -32 204 -14 362 17 149 76 361 130 475 14 29 26 60 26 69 0
9 4 20 10 26 9 9 31 82 60 192 4 19 17 44 28 55 35 39 43 66 37 111 -7 43 -18
63 -117 218 -63 100 -81 183 -83 393 -1 88 -5 173 -10 189 -9 33 -88 167 -140
238 -32 44 -99 119 -185 208 -114 118 -250 283 -250 303 0 7 -19 41 -43 77
-37 57 -113 203 -160 310 -9 19 -27 71 -42 115 -14 44 -32 100 -41 125 -8 25
-27 83 -40 129 -39 134 -114 268 -192 347 -64 64 -164 147 -250 206 -61 42
-109 137 -167 330 -9 32 -14 70 -11 85 3 16 2 34 -2 41 -5 7 -52 22 -106 33
-146 31 -301 113 -393 209 -26 28 -50 57 -52 63 -2 7 -7 14 -11 17 -4 3 -32
40 -63 82 -33 46 -58 73 -61 65 -3 -6 -4 -3 -1 8 3 14 -13 44 -50 95 -31 41
-58 85 -62 98 -8 32 -117 235 -163 303 -21 30 -76 96 -123 145 -46 49 -99 107
-118 128 -49 57 -207 180 -275 215 -50 25 -212 70 -319 88 -138 23 -309 56
-350 68 -27 8 -102 28 -165 45 -241 66 -276 79 -337 124 -33 24 -74 61 -91 82
-42 50 -100 172 -108 227 -4 23 -11 51 -17 62 -12 25 -68 74 -84 75 -6 0 -27
9 -45 19 -18 11 -60 27 -93 36 -33 9 -98 27 -145 40 -88 25 -196 53 -314 82
-137 33 -540 33 -637 0 -77 -26 -197 -46 -329 -55 -115 -8 -134 -7 -266 19
-124 25 -268 71 -284 90 -16 20 -163 78 -258 103 -59 15 -153 29 -297 44 -38
4 -137 7 -220 6 -140 0 -157 -3 -247 -32 -99 -32 -250 -99 -256 -114 -2 -4
-11 -8 -20 -8 -9 0 -48 -23 -87 -50 -38 -27 -101 -68 -140 -90 l-70 -40 -127
0 c-70 0 -157 6 -195 14 -37 8 -113 17 -168 21 -55 3 -123 11 -151 16 -28 5
-87 11 -133 13 -45 2 -84 6 -88 10 -11 11 -97 6 -145 -8 -74 -23 -149 -77
-224 -163 -117 -134 -136 -157 -147 -183 -6 -14 -39 -60 -74 -103 -35 -44 -63
-82 -63 -86 0 -12 -151 -135 -216 -177 -75 -48 -173 -89 -354 -148 -80 -26
-170 -61 -200 -77 -30 -15 -96 -48 -146 -73 -89 -43 -135 -72 -281 -179 -92
-67 -227 -169 -233 -177 -3 -3 -25 -21 -49 -40 -62 -48 -125 -118 -171 -189
-22 -34 -40 -64 -40 -68 0 -3 -13 -28 -30 -54 -16 -27 -38 -73 -48 -102 -10
-29 -34 -76 -55 -104 -20 -28 -37 -54 -37 -57 0 -4 -25 -47 -55 -97 -30 -50
-55 -94 -55 -98 0 -4 -10 -17 -23 -28 -12 -11 -33 -35 -47 -53 -39 -51 -194
-210 -223 -228 -14 -10 -43 -33 -64 -53 -21 -19 -46 -38 -55 -42 -10 -3 -18
-10 -18 -15 0 -15 -151 -86 -259 -122 -93 -31 -109 -39 -129 -70 -38 -58 -46
-71 -63 -94 -9 -11 -24 -46 -34 -76 -10 -30 -31 -89 -47 -130 -16 -41 -36
-100 -44 -130 -8 -30 -22 -62 -30 -71 -8 -9 -32 -52 -54 -97 -22 -44 -47 -88
-57 -98 -10 -9 -18 -22 -18 -28 0 -6 -9 -24 -19 -40 -11 -16 -21 -46 -22 -68
-3 -56 -30 -105 -77 -139 -51 -37 -77 -48 -142 -59 -35 -6 -57 -5 -75 4 -168
87 -316 165 -363 192 -32 19 -61 34 -65 34 -11 0 -126 72 -134 84 -29 41 14
187 90 304 26 41 100 114 136 132 17 10 59 50 94 91 35 41 74 86 87 101 34 39
40 53 64 152 30 123 80 278 96 296 7 8 25 40 40 70 91 182 211 299 430 420
164 90 242 152 312 246 58 78 138 211 148 246 9 30 184 381 194 388 4 3 39 43
78 90 38 47 80 93 91 104 12 10 19 24 15 30 -3 6 -3 8 2 4 4 -4 44 21 88 55
137 107 159 121 267 180 58 32 114 63 125 69 98 56 300 149 350 162 22 6 214
22 365 31 85 5 139 14 300 46 64 13 179 71 220 111 19 19 53 68 75 108 62 115
353 432 433 474 18 9 32 20 32 25 0 4 33 19 73 32 59 19 102 24 237 29 153 5
204 3 380 -15 100 -10 102 -10 147 -23 47 -14 75 -7 127 33 18 14 77 46 132
72 l99 47 155 -4 c309 -8 330 -7 397 19 34 13 104 54 155 92 51 38 105 74 121
81 15 7 27 16 27 19 0 3 19 12 43 20 23 7 66 26 96 41 44 23 66 28 125 28 40
0 98 -5 128 -10z m-37 -695 c222 -14 365 -46 503 -114 119 -59 156 -73 272
-109 97 -30 157 -36 350 -36 171 0 179 1 330 39 154 39 156 39 340 38 102 -1
208 -6 235 -11 73 -14 292 -69 350 -88 28 -9 79 -25 115 -35 94 -26 195 -74
219 -105 11 -15 30 -59 42 -98 12 -39 27 -78 35 -87 8 -9 12 -18 9 -21 -20
-19 183 -218 238 -233 12 -4 49 -19 82 -35 33 -15 84 -30 114 -33 29 -4 83
-15 120 -26 112 -33 184 -50 221 -53 19 -1 40 -5 45 -9 6 -3 53 -14 105 -23
303 -54 326 -61 497 -149 45 -24 246 -211 334 -312 33 -39 102 -140 124 -185
10 -19 29 -49 42 -66 13 -18 37 -60 54 -95 17 -35 38 -72 47 -82 9 -10 17 -25
18 -33 4 -23 79 -145 111 -179 15 -16 33 -39 38 -52 11 -23 129 -166 180 -216
40 -40 293 -167 332 -167 7 0 19 -13 27 -29 9 -16 27 -38 42 -48 20 -15 33
-40 51 -104 13 -46 41 -115 63 -152 21 -37 42 -75 45 -85 5 -16 46 -50 139
-117 129 -92 227 -203 286 -322 27 -55 50 -108 50 -117 0 -14 9 -39 31 -91 15
-33 59 -175 59 -188 0 -41 152 -359 219 -459 27 -40 65 -99 84 -131 19 -32 63
-88 99 -125 35 -37 99 -107 143 -157 43 -49 93 -103 112 -119 18 -16 33 -32
33 -37 0 -5 22 -39 48 -76 26 -38 56 -86 67 -108 22 -47 34 -163 24 -220 -9
-51 -6 -95 16 -220 19 -109 46 -169 122 -274 25 -36 50 -81 53 -100 4 -20 11
-49 15 -65 7 -25 6 -28 -13 -22 -20 7 -51 -14 -53 -37 -7 -69 -39 -166 -99
-297 -39 -84 -90 -243 -90 -278 0 -10 -5 -23 -11 -29 -15 -15 -46 -231 -48
-338 -1 -49 3 -112 8 -140 6 -27 13 -63 15 -78 8 -45 35 -127 65 -192 16 -33
33 -71 40 -85 20 -45 57 -103 82 -128 24 -24 67 -99 113 -197 42 -89 63 -206
61 -345 -2 -69 -8 -168 -15 -220 -6 -52 -13 -183 -15 -290 -3 -186 -5 -200
-33 -280 -16 -47 -41 -106 -55 -131 -14 -25 -37 -66 -49 -90 -13 -25 -44 -71
-68 -104 -25 -33 -69 -98 -99 -145 -29 -47 -74 -112 -100 -145 -25 -33 -55
-73 -66 -89 -66 -97 -95 -142 -95 -153 0 -11 -12 -41 -42 -108 -12 -27 -12
-44 -4 -160 l8 -100 -34 -50 c-18 -28 -42 -67 -53 -88 -11 -20 -29 -40 -40
-43 -11 -4 -26 -15 -33 -25 -7 -11 -18 -19 -23 -19 -29 0 -277 -190 -350 -267
-50 -53 -221 -308 -266 -396 -20 -40 -42 -79 -49 -87 -6 -8 -15 -26 -19 -39
-4 -13 -20 -44 -36 -69 -16 -25 -36 -68 -44 -96 -23 -73 -71 -202 -101 -271
-7 -16 -22 -61 -34 -100 -12 -38 -35 -108 -52 -155 -17 -47 -37 -110 -44 -140
-8 -30 -19 -64 -23 -75 -75 -172 -112 -245 -122 -245 -5 0 -9 -6 -9 -14 0 -24
-114 -134 -165 -159 -50 -24 -159 -50 -265 -63 -30 -4 -84 -15 -120 -26 -36
-10 -117 -33 -180 -49 -63 -17 -119 -35 -125 -40 -5 -5 -15 -9 -22 -9 -24 0
-158 -68 -178 -91 -11 -11 -33 -28 -48 -36 -90 -46 -339 -259 -357 -305 -8
-18 -26 -52 -42 -75 -15 -23 -28 -46 -28 -50 0 -5 -16 -27 -35 -49 -20 -21
-47 -57 -62 -79 -44 -66 -209 -224 -261 -250 -51 -25 -71 -31 -252 -70 -129
-27 -229 -41 -405 -55 -140 -11 -296 -44 -356 -75 -15 -8 -36 -15 -46 -15 -10
0 -51 -16 -92 -35 -40 -19 -77 -35 -83 -35 -5 0 -22 -8 -36 -18 -15 -10 -52
-28 -82 -41 -30 -13 -68 -29 -85 -36 -16 -7 -46 -19 -65 -26 -19 -6 -53 -20
-75 -29 -22 -10 -83 -33 -135 -53 -85 -31 -325 -137 -390 -172 -36 -19 -164
-69 -240 -93 -103 -33 -225 -51 -370 -55 -234 -7 -455 33 -740 132 -96 34
-191 65 -210 70 -19 5 -66 18 -105 29 -69 19 -187 46 -339 78 -77 16 -305 22
-326 9 -12 -7 -89 26 -150 65 -25 16 -89 79 -143 139 -53 61 -112 121 -131
133 -91 62 -146 98 -201 130 -84 50 -276 135 -354 158 -36 10 -85 26 -109 34
-24 9 -51 17 -60 19 -9 1 -22 6 -28 9 -6 4 -22 9 -35 11 -14 3 -45 14 -69 24
-89 39 -126 47 -240 48 -63 1 -160 6 -215 11 -55 4 -116 7 -135 5 -112 -9
-271 -2 -320 14 -56 18 -223 102 -268 133 -15 11 -47 30 -72 42 -25 12 -65 39
-90 60 -25 20 -78 60 -117 88 -132 94 -147 117 -199 307 -13 50 -38 116 -54
148 -17 31 -30 62 -30 69 0 14 -57 84 -130 161 -50 53 -153 129 -269 197 -57
33 -186 138 -237 192 -62 66 -91 117 -104 183 -6 33 -19 80 -27 105 -50 145
-64 182 -96 250 -19 41 -50 93 -67 115 -18 22 -48 65 -67 95 -43 66 -60 86
-172 209 -93 102 -110 119 -162 167 -19 18 -77 76 -130 130 -174 179 -315 283
-491 365 -27 12 -48 27 -48 34 0 6 48 33 108 60 59 26 132 59 162 72 30 14 69
31 85 38 80 35 414 189 445 205 74 39 328 150 344 150 6 0 22 9 36 20 14 11
30 20 37 20 6 0 71 29 145 64 188 89 349 164 413 191 134 56 303 140 298 148
-3 6 -1 7 5 3 6 -4 60 16 119 45 122 58 248 117 278 129 11 5 77 36 147 70 70
33 147 67 170 76 23 8 60 25 83 38 22 13 78 40 125 61 47 20 130 59 185 85 55
26 132 62 170 80 39 17 111 52 162 76 50 24 94 44 97 44 3 0 45 19 93 41 49
23 120 56 158 74 168 76 216 101 221 117 4 13 12 16 37 11 18 -3 36 -13 41
-21 4 -8 17 -21 27 -30 10 -9 19 -20 19 -25 0 -5 18 -30 40 -55 34 -42 62 -60
173 -114 10 -5 60 -23 110 -41 85 -29 102 -31 217 -31 132 1 199 15 270 57 41
25 197 155 245 204 115 119 147 409 63 567 -8 15 -6 22 8 33 10 7 23 13 28 13
12 0 248 110 256 120 3 3 41 20 85 39 44 19 115 51 158 73 43 21 81 38 86 38
5 0 57 23 116 51 64 31 127 54 158 58 42 5 53 10 55 26 2 15 -9 29 -38 48 -23
15 -49 27 -59 27 -9 0 -26 7 -38 15 -27 19 -307 161 -393 199 -104 46 -417
208 -715 368 -38 21 -137 71 -220 112 -82 41 -168 86 -190 99 -22 13 -215 113
-430 223 -214 109 -421 215 -460 236 -38 20 -106 55 -150 78 -44 22 -224 114
-400 204 -176 90 -383 195 -460 235 -77 39 -145 71 -152 71 -6 0 -13 4 -15 8
-1 4 -30 22 -63 39 -33 17 -121 62 -195 100 -128 66 -262 139 -340 185 -19 11
-80 43 -135 71 -88 44 -134 70 -285 154 -20 11 -87 46 -150 78 -63 31 -131 65
-150 76 -36 19 -276 137 -320 157 -14 7 -32 16 -40 22 -8 5 -37 19 -65 31 -27
12 -57 28 -65 35 -8 6 -64 38 -125 69 -60 32 -117 63 -125 70 -8 7 -35 22 -60
33 -39 19 -124 64 -185 100 -34 20 -131 60 -164 67 -17 3 -33 10 -36 15 -9 14
35 37 84 45 57 9 101 57 137 145 14 36 35 88 46 115 11 28 24 58 29 67 5 10 9
23 9 29 0 6 13 29 29 52 45 67 90 162 107 229 9 34 20 69 25 77 14 26 49 109
49 117 0 3 12 34 27 68 47 107 100 147 273 202 86 27 162 74 252 156 35 31 86
76 114 100 103 87 217 225 295 357 34 58 70 117 80 131 19 26 49 85 120 235
23 50 66 122 95 160 48 64 182 196 223 220 10 6 54 39 100 75 45 36 99 76 120
90 20 14 59 41 86 61 96 71 246 141 488 229 302 110 400 159 503 251 41 37 85
80 97 96 12 15 29 34 39 41 10 7 18 18 18 24 0 6 18 34 40 62 22 28 68 87 102
130 135 172 217 235 332 257 97 18 361 -2 624 -47 112 -19 323 -17 344 4 6 6
20 12 30 12 19 0 128 63 187 107 37 29 125 78 219 124 126 60 264 91 377 84
33 -3 101 -7 150 -10z m-4410 -825 c-3 -5 -11 -10 -16 -10 -6 0 -7 5 -4 10 3
6 11 10 16 10 6 0 7 -4 4 -10z m-468 -3796 c-3 -3 -12 -4 -19 -1 -8 3 -5 6 6
6 11 1 17 -2 13 -5z m2043 -1048 c0 -3 -4 -8 -10 -11 -5 -3 -10 -1 -10 4 0 6
5 11 10 11 6 0 10 -2 10 -4z m2210 -2106 c0 -5 -2 -10 -4 -10 -3 0 -8 5 -11
10 -3 6 -1 10 4 10 6 0 11 -4 11 -10z m-24 -68 c1 -15 9 -47 19 -72 9 -26 16
-72 16 -108 -1 -182 -33 -227 -328 -454 -22 -18 -138 -40 -220 -43 -71 -2 -98
2 -200 34 -65 20 -131 44 -148 53 -39 21 -102 84 -120 119 -8 14 -21 29 -30
32 -27 11 -16 38 23 54 20 8 69 31 107 50 39 19 90 43 115 53 25 10 101 45
170 77 69 33 168 80 220 103 52 24 106 51 120 61 14 9 36 20 50 24 14 4 48 19
75 32 76 38 98 43 115 26 8 -7 16 -26 16 -41z m-3336 -4502 c0 -5 -2 -10 -4
-10 -3 0 -8 5 -11 10 -3 6 -1 10 4 10 6 0 11 -4 11 -10z m8890 -1170 c0 -5 -2
-10 -4 -10 -3 0 -8 5 -11 10 -3 6 -1 10 4 10 6 0 11 -4 11 -10z"/>
<path d="M10029 15175 c-79 -16 -199 -51 -231 -68 -105 -55 -169 -114 -234
-215 -99 -152 -104 -166 -111 -315 -7 -162 9 -259 62 -367 71 -147 122 -195
218 -205 90 -9 190 9 243 46 46 32 87 80 98 116 4 13 21 26 41 33 38 13 51 8
171 -66 81 -50 123 -56 191 -25 66 30 118 92 152 181 40 104 47 149 28 187
-18 33 -91 103 -109 103 -6 0 -38 17 -69 38 -57 36 -72 63 -46 79 14 9 57 73
79 116 18 36 7 130 -21 185 -29 54 -103 130 -137 138 -16 4 -45 16 -64 27 -44
25 -167 31 -261 12z m195 -60 c32 -9 75 -28 95 -43 20 -15 48 -33 62 -41 76
-38 78 -175 4 -253 -20 -21 -35 -28 -65 -28 -38 0 -40 2 -40 30 0 20 -5 30
-15 30 -10 0 -15 -10 -15 -34 0 -30 -4 -34 -32 -40 -19 -4 -34 -2 -36 4 -8 22
-41 55 -48 47 -5 -4 -3 -21 3 -38 11 -28 10 -31 -20 -50 -39 -23 -44 -23 -55
-2 -6 10 -16 14 -26 10 -16 -6 -16 -10 4 -37 31 -44 20 -70 -30 -70 -46 0 -62
-17 -25 -26 23 -6 26 -11 23 -43 -2 -28 -9 -39 -30 -49 -35 -16 -36 -32 -3
-32 26 0 48 -31 28 -37 -27 -9 -42 -29 -33 -43 7 -12 12 -12 29 4 19 17 20 17
40 -25 26 -54 26 -75 1 -91 -11 -7 -20 -19 -20 -26 0 -7 -9 -30 -19 -50 -28
-56 -97 -89 -197 -98 -76 -6 -81 -5 -111 20 -43 36 -118 152 -131 201 -27 102
-34 167 -28 256 15 213 31 255 141 364 68 69 188 151 250 173 98 34 209 40
299 17z m106 -483 c172 -86 224 -136 235 -226 11 -87 -41 -173 -130 -216 -53
-25 -46 -28 -202 83 -97 69 -116 88 -142 137 -45 84 -42 123 12 182 45 50 97
78 137 74 14 -1 54 -16 90 -34z"/>
<path d="M8040 15170 c-41 -4 -98 -14 -126 -23 -68 -20 -154 -58 -154 -67 0
-4 -15 -14 -32 -21 -33 -14 -140 -95 -147 -112 -2 -5 -41 -48 -88 -95 -101
-104 -208 -260 -218 -317 -4 -22 -11 -45 -17 -52 -5 -7 -18 -43 -28 -80 -11
-37 -26 -93 -35 -123 -31 -112 -9 -373 36 -427 9 -10 23 -34 32 -54 24 -53
121 -148 207 -204 41 -27 77 -52 80 -56 8 -11 123 -55 166 -64 21 -5 46 -10
54 -12 8 -2 35 -6 60 -9 213 -26 372 -7 555 67 66 27 131 57 145 67 14 10 48
29 75 42 120 59 268 259 364 490 41 99 49 148 47 283 -2 94 -7 126 -31 197
-69 203 -170 346 -294 418 -68 39 -192 88 -247 97 -16 2 -58 14 -93 25 -52 16
-213 43 -231 39 -3 -1 -39 -5 -80 -9z m315 -90 c50 -13 97 -29 106 -37 9 -8
45 -23 78 -33 83 -25 149 -69 213 -142 75 -86 90 -111 131 -213 51 -131 59
-168 58 -278 -1 -112 -17 -177 -67 -285 -19 -40 -34 -75 -34 -78 0 -6 -65
-102 -118 -174 -48 -65 -120 -128 -172 -153 -25 -11 -51 -25 -58 -30 -11 -8
-75 -31 -232 -81 -149 -48 -365 -64 -473 -35 -106 27 -256 116 -388 229 -89
77 -141 227 -134 390 6 140 43 295 88 363 10 15 21 37 26 50 37 94 260 344
371 415 30 19 81 43 112 53 32 10 69 26 83 35 35 23 174 41 254 33 36 -4 107
-17 156 -29z"/>
<path d="M8552 14865 c-32 -27 -46 -61 -29 -72 5 -3 17 3 26 14 26 32 68 56
76 43 9 -14 35 6 35 26 0 25 -75 17 -108 -11z"/>
<path d="M7757 14682 c-22 -24 -22 -85 -1 -103 14 -11 19 -10 34 9 10 12 25
22 34 22 25 0 24 44 -1 73 -21 22 -46 22 -66 -1z"/>
<path d="M7596 14106 l-30 -23 28 -27 c16 -14 35 -26 42 -26 22 0 27 21 8 41
-16 18 -16 19 9 19 18 0 32 -9 44 -26 16 -26 16 -27 -5 -44 -37 -30 -23 -51
23 -34 23 9 44 55 35 79 -26 66 -99 86 -154 41z"/>
<path d="M8265 14056 c-16 -7 -38 -29 -49 -49 -25 -49 -10 -97 40 -120 47 -23
71 -21 97 6 13 12 35 30 50 40 20 13 27 26 27 51 0 27 -7 38 -38 60 -42 29
-81 32 -127 12z m98 -42 c18 -9 34 -18 36 -20 9 -8 -23 -34 -40 -34 -12 0 -24
-11 -29 -26 -9 -22 -14 -25 -38 -19 -56 14 -67 44 -31 89 24 30 56 33 102 10z"/>
<path d="M7684 13828 c-10 -15 33 -49 53 -41 11 4 14 2 11 -8 -3 -8 -22 -15
-49 -17 -82 -6 -75 -42 8 -42 31 0 48 6 63 22 26 28 26 74 1 88 -26 14 -78 13
-87 -2z"/>
<path d="M6813 15028 c-12 -6 -26 -24 -32 -39 -8 -24 -15 -29 -44 -29 -49 0
-119 -27 -139 -53 -13 -16 -18 -41 -18 -92 0 -59 -3 -72 -20 -83 -16 -10 -20
-23 -20 -66 0 -50 -2 -54 -29 -66 -27 -11 -49 -44 -65 -96 -16 -52 45 -114
112 -114 17 0 54 11 82 24 l49 24 36 -34 c47 -44 77 -44 122 1 19 19 37 35 40
35 3 0 16 -9 30 -20 31 -24 71 -25 139 -5 88 26 134 96 134 208 0 66 -17 112
-53 146 -21 19 -24 28 -16 42 11 22 6 97 -9 126 -18 32 -85 46 -140 28 -16 -5
-24 0 -36 23 -23 45 -76 63 -123 40z m71 -50 c9 -12 16 -33 16 -46 0 -27 24
-39 45 -22 8 7 38 13 66 14 44 1 54 -3 70 -24 30 -39 11 -83 -42 -99 -50 -15
-46 -35 7 -39 67 -6 104 -59 104 -151 0 -92 -27 -127 -117 -156 -64 -20 -83
-15 -127 37 -37 43 -66 46 -66 7 0 -30 -31 -79 -51 -79 -19 0 -34 16 -44 48
-16 53 -75 80 -75 35 -1 -31 -33 -60 -80 -71 -39 -10 -48 -9 -70 7 -48 34 -34
119 23 143 18 7 48 13 67 13 47 0 56 32 11 41 -32 7 -45 26 -36 55 5 14 16 19
45 19 49 0 57 13 24 37 -19 14 -27 31 -31 64 -7 63 23 99 90 106 45 5 47 4 47
-19 0 -22 8 -36 51 -86 16 -19 43 -10 47 15 2 12 -6 41 -17 64 -25 51 -26 72
-5 93 21 21 30 20 48 -6z"/>
<path d="M6090 14530 c-52 -10 -114 -19 -138 -19 -53 -1 -60 -16 -33 -70 12
-22 21 -54 21 -71 0 -65 -109 -91 -165 -38 -14 12 -25 28 -25 34 0 7 -9 22
-20 35 l-20 24 -17 -21 c-26 -30 -120 -84 -147 -84 -41 0 -49 -23 -23 -61 28
-41 67 -121 67 -136 0 -7 15 -22 33 -35 17 -12 43 -32 56 -44 36 -33 101 -48
184 -41 111 8 176 37 242 108 30 33 62 77 71 97 30 73 56 188 57 262 2 73 1
75 -23 77 -14 1 -68 -7 -120 -17z m102 -67 c12 -55 -47 -223 -107 -308 -40
-57 -47 -62 -114 -83 -165 -53 -252 -29 -339 93 -29 42 -52 83 -50 92 2 10 29
30 61 46 l59 27 31 -26 c85 -72 175 -73 226 -3 18 24 22 41 20 84 -1 30 0 57
3 60 6 7 142 32 180 34 18 1 28 -5 30 -16z"/>
<path d="M11332 14039 c-47 -9 -266 -103 -293 -126 -8 -7 -19 -13 -23 -13 -6
0 -53 -31 -83 -55 -7 -5 -37 -28 -66 -50 -47 -34 -137 -153 -137 -181 0 -4 -9
-18 -21 -30 -24 -25 -72 -140 -95 -228 -27 -98 -24 -272 5 -348 62 -160 132
-273 241 -388 41 -43 80 -69 155 -107 55 -27 118 -55 140 -62 22 -7 49 -16 60
-21 121 -49 314 -46 490 9 33 11 74 22 92 26 58 12 248 164 274 220 5 11 27
47 49 80 125 190 142 239 136 395 -6 166 -50 358 -118 509 -51 115 -91 150
-276 240 -154 76 -281 119 -386 131 -91 11 -85 11 -144 -1z m238 -88 c118 -33
364 -147 412 -192 18 -16 35 -29 39 -29 15 0 84 -177 115 -295 27 -103 46
-271 38 -347 -7 -78 -25 -126 -74 -198 -16 -25 -30 -53 -30 -63 0 -29 -136
-171 -240 -250 -42 -32 -71 -45 -120 -55 -36 -7 -85 -17 -109 -23 -77 -17
-225 -23 -293 -10 -69 13 -155 44 -263 96 -50 24 -87 51 -125 93 -59 62 -118
142 -142 188 -98 194 -110 241 -103 380 6 109 -4 82 142 357 29 54 136 177
155 177 4 0 32 16 62 35 77 49 260 135 309 145 70 13 158 10 227 -9z"/>
<path d="M11496 13631 c-15 -17 -17 -24 -8 -33 10 -10 17 -10 31 -1 15 9 23 9
37 -2 18 -13 17 -14 -11 -15 -37 0 -60 -14 -51 -29 9 -14 40 -14 89 0 29 8 37
15 37 33 0 26 -34 53 -78 62 -20 4 -33 0 -46 -15z"/>
<path d="M11805 13125 c-26 -25 -33 -73 -14 -92 12 -12 49 -6 49 9 0 5 4 6 10
3 5 -3 23 1 40 10 23 12 30 22 30 45 0 53 -72 69 -115 25z m65 -18 c0 -8 -11
-24 -25 -37 l-25 -23 0 24 c0 27 17 49 37 49 7 0 13 -6 13 -13z"/>
<path d="M11501 12968 c-9 -40 -9 -53 1 -60 17 -10 26 -10 33 2 3 5 19 7 34 4
34 -7 81 20 81 46 0 30 -48 60 -96 60 l-42 0 -11 -52z m73 16 c25 -10 19 -31
-11 -37 -35 -7 -37 -4 -23 22 12 23 12 23 34 15z"/>
<path d="M10979 12954 c-11 -14 -11 -18 4 -29 10 -7 27 -11 37 -8 11 3 20 0
20 -5 0 -14 -35 -34 -44 -25 -3 3 -6 -3 -6 -13 0 -17 6 -19 34 -16 44 5 70 33
62 65 -10 41 -81 62 -107 31z"/>
<path d="M7140 13560 c-116 -11 -247 -105 -288 -205 -48 -118 -58 -296 -19
-344 15 -17 35 -52 42 -71 7 -19 19 -27 120 -79 l75 -40 109 9 c90 6 119 13
166 36 71 36 139 111 162 179 23 67 23 217 0 260 -9 17 -17 34 -17 38 0 5 -18
39 -40 77 -69 119 -153 157 -310 140z m180 -69 c45 -32 114 -128 140 -193 32
-81 32 -161 0 -238 -29 -69 -52 -94 -115 -131 -49 -28 -51 -29 -160 -22 -85 5
-120 11 -155 29 -63 32 -105 79 -130 147 -18 49 -21 69 -15 129 7 71 31 140
67 191 20 29 87 67 173 99 60 22 156 17 195 -11z"/>
<path d="M7081 13269 c-29 -29 -36 -53 -31 -104 1 -11 6 -24 11 -29 5 -6 9
-20 9 -32 0 -19 7 -23 48 -29 104 -14 172 47 157 141 -9 64 -35 84 -106 84
-51 0 -61 -4 -88 -31z m140 -33 c7 -14 9 -40 5 -59 -5 -29 -13 -38 -49 -52
l-42 -17 -22 27 c-48 55 -16 125 58 125 32 0 41 -4 50 -24z"/>
<path d="M4910 13360 c-30 -4 -73 -12 -95 -19 -22 -6 -56 -11 -75 -11 -43 0
-186 -63 -259 -113 -29 -20 -58 -37 -63 -37 -23 0 -246 -197 -254 -225 -4 -11
-20 -47 -36 -80 -67 -137 -95 -280 -84 -430 9 -122 12 -141 30 -210 9 -32 16
-69 16 -82 0 -12 7 -44 16 -70 9 -26 18 -67 20 -89 2 -41 9 -53 119 -207 65
-91 152 -172 228 -211 39 -21 77 -44 82 -50 10 -12 68 -34 200 -76 74 -24 236
-34 305 -19 19 4 91 18 160 29 135 24 284 69 340 103 19 12 60 46 91 77 31 30
82 80 113 110 65 62 122 142 153 216 21 48 55 189 73 304 12 72 14 83 22 95 3
6 4 66 3 135 -3 108 -7 137 -33 210 -46 132 -81 211 -118 263 -19 26 -34 50
-34 55 0 21 -64 98 -106 129 -97 69 -192 111 -384 169 -101 30 -131 35 -245
38 -71 2 -155 0 -185 -4z m305 -81 c154 -29 208 -45 300 -86 44 -19 94 -41
110 -49 95 -42 211 -223 286 -446 24 -72 30 -106 31 -190 2 -94 -16 -228 -42
-313 -4 -16 -14 -57 -21 -90 -12 -55 -44 -128 -73 -165 -7 -8 -17 -27 -23 -42
-7 -14 -57 -73 -113 -131 -139 -145 -223 -186 -465 -231 -49 -9 -112 -21 -140
-26 -69 -13 -170 -14 -234 -1 -59 12 -247 84 -271 105 -8 7 -37 25 -64 40 -88
51 -223 213 -259 311 -39 105 -85 351 -102 542 -8 98 31 259 99 402 6 13 40
49 75 80 35 31 75 68 90 82 14 14 57 43 94 65 38 21 83 47 99 57 52 31 124 54
221 72 50 10 106 21 122 25 55 15 169 10 280 -11z"/>
<path d="M4561 12978 c-7 -19 -5 -24 15 -31 27 -10 31 -29 11 -46 -9 -7 -17
-7 -24 0 -7 7 -12 4 -16 -10 -9 -36 60 -56 95 -28 41 32 21 89 -43 123 -28 14
-30 14 -38 -8z"/>
<path d="M5669 12723 c-20 -5 -41 -50 -34 -72 2 -9 14 -22 25 -29 33 -20 57 0
62 50 5 53 -6 64 -53 51z"/>
<path d="M5192 12618 c-6 -8 -14 -33 -18 -55 -6 -41 -6 -41 37 -61 39 -17 46
-18 61 -4 22 18 8 49 -24 54 -12 2 -23 9 -26 16 -3 9 3 11 23 6 25 -6 26 -4
23 22 -2 24 -8 30 -34 32 -17 2 -36 -3 -42 -10z"/>
<path d="M5020 12051 c-48 -11 -63 -26 -56 -55 8 -31 31 -34 46 -6 6 12 21 20
37 20 23 0 25 -3 20 -30 -7 -32 0 -60 14 -60 11 0 39 66 39 91 0 28 -54 50
-100 40z"/>
<path d="M4583 11982 c-14 -9 -27 -57 -18 -71 8 -14 45 9 45 29 0 11 5 9 21
-7 27 -27 17 -43 -27 -43 -38 0 -42 -7 -16 -26 21 -16 66 -18 93 -4 29 16 27
85 -3 104 -30 18 -80 28 -95 18z"/>
<path d="M12960 13315 c-19 -7 -45 -14 -58 -14 -33 -1 -68 -41 -76 -87 -9 -47
-18 -54 -71 -54 -65 -1 -115 -17 -146 -46 -15 -15 -26 -31 -23 -35 3 -5 -3
-20 -12 -34 -19 -29 -15 -93 10 -140 15 -30 15 -30 -18 -47 -48 -25 -96 -86
-96 -123 0 -98 149 -168 254 -119 l34 17 29 -33 c24 -26 40 -35 80 -40 67 -8
135 9 147 36 8 18 22 23 75 28 36 4 76 13 88 21 30 20 47 77 39 136 l-7 49 38
0 c47 0 91 24 131 71 54 62 67 132 37 201 -13 32 -20 36 -71 47 -32 6 -83 11
-115 11 -56 0 -58 1 -64 31 -12 54 -44 97 -89 118 -48 24 -67 25 -116 6z m135
-85 c24 -33 30 -52 30 -93 0 -43 3 -52 19 -55 11 -3 26 4 33 14 11 15 27 19
79 19 59 0 68 -3 89 -27 13 -16 29 -28 35 -28 13 0 13 -33 -1 -80 -10 -34 -19
-42 -83 -71 -44 -21 -89 -34 -119 -35 -45 -2 -77 -16 -77 -35 0 -5 9 -9 19 -9
54 0 66 -66 24 -123 -34 -45 -56 -51 -108 -33 -46 16 -55 13 -55 -19 0 -27
-34 -55 -67 -55 -49 0 -123 49 -123 81 0 10 9 27 21 38 15 14 18 24 12 36 -9
15 -14 13 -41 -15 -18 -17 -32 -38 -32 -45 0 -25 -56 -55 -103 -55 -57 0 -85
10 -119 45 -36 36 -35 56 3 100 46 52 74 63 145 57 66 -5 86 7 63 34 -9 11
-23 14 -47 10 -98 -15 -124 168 -31 216 42 22 133 24 181 3 48 -20 68 -1 33
31 -24 22 -24 23 -9 67 19 55 61 76 144 72 52 -3 57 -5 85 -45z"/>
<path d="M8492 13306 c-55 -11 -108 -41 -120 -69 -10 -21 -37 -37 -63 -37 -19
0 -42 -11 -66 -34 -36 -33 -38 -37 -38 -102 0 -45 4 -69 13 -71 19 -7 14 -41
-8 -48 -23 -7 -50 -58 -50 -95 0 -23 -6 -28 -47 -41 -58 -18 -84 -62 -85 -142
-1 -65 18 -104 83 -169 47 -47 49 -48 109 -48 33 0 77 7 97 15 20 8 37 14 37
13 13 -35 43 -78 55 -79 27 -2 75 2 93 7 12 4 21 -4 31 -28 8 -18 24 -43 36
-56 20 -20 28 -22 74 -16 142 18 239 127 240 269 0 33 -2 71 -6 84 -10 37 -61
96 -86 99 -17 3 -21 8 -15 25 3 12 12 29 19 37 19 22 45 89 40 103 -2 6 -6 32
-9 55 -2 24 -7 47 -11 50 -3 3 -35 8 -70 10 -36 2 -65 7 -65 11 0 4 7 31 15
59 18 61 12 113 -18 159 -37 55 -69 61 -185 39z m128 -36 c17 -12 32 -36 40
-64 17 -60 -6 -131 -55 -172 -48 -40 -47 -59 3 -49 20 5 68 9 107 9 l70 1 9
-43 c8 -36 5 -51 -15 -93 -27 -58 -60 -89 -96 -89 -21 0 -24 -4 -21 -27 3 -27
5 -28 56 -25 67 5 93 -12 117 -74 16 -42 17 -55 6 -107 -22 -105 -97 -180
-193 -193 -42 -6 -46 -4 -68 26 -15 22 -23 46 -23 81 -1 44 -3 49 -24 49 -13
0 -23 -5 -23 -12 0 -37 -75 -65 -97 -35 -14 17 -14 59 -1 75 9 10 7 17 -4 28
-14 14 -19 12 -49 -15 -63 -58 -154 -68 -212 -23 -57 44 -80 93 -75 163 6 82
20 94 108 94 37 0 72 3 76 8 4 4 -6 21 -24 37 -33 30 -34 47 -4 83 18 21 40
21 66 2 30 -22 66 -19 66 5 0 11 -7 20 -15 20 -8 0 -19 9 -25 20 -6 11 -18 20
-27 20 -32 0 -53 31 -53 77 0 56 21 97 59 113 25 10 34 9 53 -4 43 -30 90 -12
57 21 -15 15 -2 51 26 69 12 8 51 21 86 29 35 7 66 14 67 14 2 1 16 -8 32 -19z"/>
<path d="M9800 13111 c-120 -17 -194 -77 -256 -206 -38 -77 -42 -119 -24 -262
12 -95 27 -136 67 -179 45 -50 74 -61 218 -85 78 -13 149 2 235 52 105 60 154
109 184 184 14 36 26 75 26 88 1 12 7 39 14 60 12 33 12 43 -6 89 -74 196
-240 290 -458 259z m218 -95 c42 -22 92 -66 92 -81 0 -7 7 -15 15 -18 42 -17
62 -203 30 -281 -36 -86 -177 -176 -288 -184 -74 -6 -192 24 -211 52 -44 70
-61 205 -43 341 8 55 13 64 60 110 72 69 120 86 229 81 50 -3 99 -11 116 -20z"/>
<path d="M9782 12923 c-13 -3 -43 -24 -68 -47 -39 -38 -44 -48 -44 -87 0 -27
10 -63 25 -93 14 -27 25 -55 25 -62 0 -7 18 -19 41 -25 35 -11 49 -10 108 9
75 24 116 60 131 113 17 57 12 78 -30 123 -62 67 -109 84 -188 69z m109 -59
c35 -17 79 -70 79 -94 0 -46 -102 -120 -164 -120 -23 0 -55 28 -75 67 -31 60
2 145 62 162 34 10 57 6 98 -15z"/>
<path d="M7126 12575 c-45 -16 -99 -64 -92 -82 3 -7 -1 -10 -10 -6 -7 3 -14 0
-14 -6 0 -7 -21 -11 -53 -11 -58 0 -93 -18 -107 -55 -8 -20 -15 -23 -52 -22
-71 3 -135 -65 -130 -137 4 -48 58 -123 115 -161 21 -14 25 -21 17 -35 -6 -10
-11 -48 -13 -84 -2 -61 0 -66 28 -90 34 -30 63 -33 105 -11 34 17 36 15 45
-47 13 -88 96 -135 217 -124 151 14 306 130 324 243 14 91 -19 149 -120 208
-42 24 -46 30 -33 40 16 11 37 56 37 77 0 6 -19 28 -42 50 -40 37 -41 40 -30
71 22 60 12 113 -27 145 -58 47 -107 58 -165 37z m136 -71 c26 -26 29 -33 23
-69 -7 -49 -28 -82 -61 -97 -30 -14 -34 -58 -5 -58 11 0 23 5 26 10 3 6 22 10
40 10 26 0 39 -6 51 -25 16 -24 15 -26 -7 -45 -13 -10 -39 -22 -57 -26 -36 -7
-53 -31 -32 -44 7 -4 40 -13 72 -20 50 -9 67 -19 104 -55 33 -33 44 -53 45
-77 3 -76 -6 -95 -73 -166 -37 -39 -61 -54 -110 -70 -133 -42 -197 -40 -249 9
-31 29 -31 30 -28 111 5 97 -5 105 -65 51 -38 -35 -76 -42 -95 -19 -17 21 -7
117 13 128 36 20 69 55 62 66 -4 7 -33 12 -69 12 -62 0 -63 0 -101 46 -35 41
-38 50 -33 89 2 24 12 51 21 60 25 25 90 31 120 11 31 -20 76 -21 76 -3 0 8
-9 22 -20 32 -15 13 -17 22 -9 36 15 29 57 25 65 -6 9 -34 41 -33 55 3 25 65
49 98 85 120 53 31 114 25 156 -14z"/>
<path d="M10735 12358 c-10 -6 -30 -24 -44 -40 -19 -24 -29 -28 -50 -23 -74
18 -169 -13 -195 -64 -9 -16 -16 -54 -16 -84 0 -47 4 -57 30 -80 16 -15 39
-27 50 -27 33 0 33 -25 1 -58 -37 -36 -38 -49 -10 -97 25 -43 81 -74 127 -70
28 2 34 -2 49 -32 9 -19 26 -39 39 -43 12 -5 25 -17 28 -28 4 -10 20 -31 36
-47 36 -34 88 -39 119 -11 18 17 22 17 43 2 64 -45 154 14 208 137 33 73 15
161 -44 216 -22 20 -32 23 -73 18 -41 -5 -52 -3 -74 16 -25 22 -25 27 -21 108
l4 84 -41 50 c-39 47 -98 85 -130 85 -9 0 -25 -6 -36 -12z m123 -84 c40 -47
54 -96 42 -149 -5 -22 -13 -41 -17 -42 -39 -14 -38 -53 2 -53 48 0 66 -54 34
-96 -5 -6 -6 -14 -2 -17 15 -16 40 -5 66 28 69 87 170 -4 137 -124 -12 -47
-97 -141 -126 -141 -20 0 -45 30 -54 64 -3 11 -13 24 -23 30 -21 13 -36 -4
-30 -37 2 -12 -3 -30 -11 -41 -19 -24 -60 -15 -81 18 -14 22 -14 28 -1 60 14
34 14 37 -5 46 -16 9 -21 7 -29 -15 -7 -17 -16 -25 -28 -23 -17 3 -19 19 -10
88 4 32 -24 38 -54 11 -31 -30 -79 -27 -112 5 -14 15 -26 36 -26 47 0 24 42
65 87 83 22 10 33 21 33 35 0 18 -5 20 -36 15 -48 -8 -112 12 -131 41 -22 33
-11 101 19 124 31 24 95 34 122 19 12 -6 27 -25 33 -41 6 -16 18 -29 26 -29
18 0 30 30 22 53 -7 17 18 72 37 81 33 14 84 -4 116 -40z"/>
<path d="M13625 12301 c-45 -8 -126 -49 -167 -83 -14 -13 -51 -62 -81 -110
-82 -131 -97 -255 -50 -406 23 -74 92 -142 186 -184 37 -17 67 -34 67 -37 0
-4 28 -13 63 -21 152 -36 292 1 356 94 17 24 37 46 45 49 19 7 91 157 106 223
29 118 -22 252 -138 363 -91 87 -153 114 -262 117 -47 2 -103 -1 -125 -5z
m261 -72 c86 -51 180 -146 193 -194 21 -74 33 -179 28 -226 -17 -143 -168
-294 -306 -307 -50 -4 -213 34 -272 63 -74 37 -139 96 -165 147 -24 48 -26 58
-22 162 4 100 7 117 35 171 17 34 52 84 78 113 78 87 149 113 291 108 73 -2
88 -6 140 -37z"/>
<path d="M13636 12016 c-47 -28 -66 -59 -64 -106 l0 -35 8 40 c11 56 59 95
120 95 75 0 120 -49 120 -129 0 -61 -17 -88 -74 -116 -45 -21 -48 -24 -23 -25
73 -1 116 56 119 156 2 63 -19 99 -73 126 -47 24 -87 22 -133 -6z"/>
<path d="M13590 11824 c0 -21 25 -63 33 -54 3 3 -3 21 -13 40 -15 27 -19 30
-20 14z"/>
<path d="M3340 12226 c-77 -21 -120 -47 -171 -105 -66 -75 -78 -101 -90 -190
-16 -133 22 -251 101 -310 109 -80 230 -109 333 -78 29 8 63 18 77 21 34 7
120 90 152 146 37 64 62 148 50 163 -6 7 -14 30 -18 52 -4 22 -17 56 -30 75
-30 46 -183 204 -212 220 -33 17 -139 20 -192 6z m199 -109 c22 -20 46 -37 51
-37 6 0 10 -5 10 -11 0 -6 20 -35 45 -66 27 -33 45 -65 46 -81 0 -15 2 -42 5
-61 8 -60 -13 -105 -79 -176 l-62 -67 -75 -9 c-41 -5 -83 -6 -95 -3 -48 14
-132 61 -154 88 -59 69 -90 188 -72 276 13 65 101 155 181 184 8 3 47 4 86 3
67 -2 74 -5 113 -40z"/>
<path d="M3350 11953 c-31 -35 -32 -52 -9 -129 21 -67 146 -74 200 -11 38 43
41 64 14 107 -32 50 -73 72 -131 69 -37 -2 -50 -9 -74 -36z m135 -15 c43 -29
63 -63 49 -86 -19 -30 -59 -52 -98 -55 -35 -2 -41 2 -59 31 -14 24 -17 42 -13
67 13 67 59 83 121 43z"/>
<path d="M8740 11769 c-63 -10 -143 -54 -188 -103 -30 -33 -44 -60 -60 -122
-12 -44 -22 -98 -22 -120 0 -84 102 -223 195 -265 58 -26 118 -34 132 -17 19
24 80 143 93 182 12 37 11 40 -11 57 -13 10 -32 19 -41 19 -30 0 -67 22 -74
43 -10 31 31 60 71 53 46 -9 63 16 86 125 29 137 29 131 -11 140 -63 13 -124
16 -170 8z m129 -57 c23 -2 24 -5 18 -54 -9 -84 -21 -108 -57 -108 -38 0 -86
-24 -100 -49 -28 -54 -2 -104 70 -131 19 -7 38 -16 42 -19 9 -8 -30 -107 -58
-145 l-21 -28 -48 21 c-26 11 -55 21 -65 21 -22 0 -99 92 -111 133 -14 48 -11
173 5 211 16 38 79 108 114 125 43 22 110 29 211 23z"/>
<path d="M12025 11708 c-112 -9 -211 -46 -316 -116 -14 -9 -50 -31 -80 -49
-63 -37 -120 -95 -171 -173 -72 -110 -97 -199 -99 -347 -1 -125 25 -244 67
-304 78 -112 278 -179 400 -134 27 10 58 25 69 32 27 18 53 16 82 -7 14 -11
32 -20 39 -20 8 0 14 -5 14 -11 0 -6 9 -22 20 -36 11 -14 20 -33 20 -43 0 -26
29 -46 95 -68 112 -37 196 -11 318 99 76 69 92 105 82 181 -10 68 -36 118
-103 190 -50 54 -54 61 -44 84 7 13 20 27 29 30 94 31 122 48 171 107 52 62
52 62 52 133 0 91 -10 120 -78 222 -69 105 -130 153 -231 186 -157 51 -197 56
-336 44z m330 -114 c33 -16 63 -28 68 -26 12 4 105 -128 137 -194 23 -47 30
-76 30 -119 0 -56 -2 -59 -45 -98 -25 -23 -51 -42 -58 -43 -6 -2 -26 -7 -43
-12 -49 -15 -61 -1 -36 43 12 20 22 43 22 51 0 29 -20 13 -45 -36 -28 -55 -50
-71 -81 -60 -19 7 -21 14 -16 59 4 42 2 51 -11 51 -12 0 -17 -12 -19 -47 -2
-40 -7 -49 -24 -51 -25 -4 -42 15 -59 65 -7 21 -19 38 -27 38 -7 0 -12 -5 -11
-12 16 -80 15 -88 -12 -100 -31 -14 -51 -9 -59 15 -3 9 -17 32 -30 50 -14 18
-27 38 -29 45 -3 8 -8 9 -16 2 -8 -8 0 -30 29 -79 45 -77 45 -76 26 -76 -8 0
-16 -7 -20 -15 -9 -24 -30 -18 -69 22 -26 26 -40 34 -48 26 -7 -7 2 -23 31
-54 54 -56 46 -75 -29 -71 -64 4 -71 -19 -11 -37 22 -6 40 -16 40 -21 0 -19
-33 -40 -65 -40 -31 0 -54 -14 -42 -26 3 -3 22 -7 43 -10 21 -3 40 -6 42 -9
11 -11 -24 -80 -59 -116 -40 -42 -41 -42 -117 -43 -57 -1 -88 4 -117 18 -22
10 -45 20 -52 22 -26 5 -74 47 -90 77 -65 126 -58 335 17 482 53 106 112 171
210 235 81 51 205 112 213 104 2 -2 28 2 58 11 39 11 90 14 184 12 121 -3 135
-6 190 -33z m-114 -567 c33 -17 76 -62 84 -87 3 -11 12 -26 18 -32 7 -7 41
-51 75 -98 34 -47 66 -90 71 -96 23 -28 -39 -154 -75 -154 -8 0 -32 -11 -53
-25 -22 -13 -60 -29 -84 -36 -39 -9 -50 -8 -83 9 -51 26 -67 45 -99 117 -14
33 -33 73 -41 88 -8 16 -14 34 -14 42 0 7 -7 18 -15 25 -21 18 -19 96 5 148
33 74 60 90 181 111 4 1 17 -5 30 -12z"/>
<path d="M10569 11526 c-3 -3 -50 -13 -105 -21 -54 -8 -138 -27 -185 -44 -127
-43 -182 -82 -258 -184 -56 -74 -63 -108 -41 -198 25 -101 33 -121 69 -155 17
-16 31 -33 31 -39 0 -13 -76 -67 -112 -80 -38 -13 -162 -124 -175 -155 -40
-94 2 -215 112 -321 79 -77 122 -98 194 -99 68 0 121 29 182 100 l44 50 43
-12 c24 -6 45 -16 47 -22 2 -6 6 -23 9 -37 9 -42 88 -122 152 -154 52 -26 66
-29 153 -28 120 1 184 23 279 98 56 44 75 67 109 132 62 118 83 192 88 312 8
161 -21 297 -94 441 -91 180 -114 217 -171 271 -80 77 -206 138 -298 146 -37
3 -70 2 -73 -1z m81 -86 c36 -6 92 -24 125 -40 62 -30 175 -131 175 -156 0 -8
3 -14 8 -14 4 0 13 -15 21 -32 17 -40 28 -63 73 -153 57 -111 79 -216 76 -373
-1 -72 -5 -132 -8 -132 -4 0 -17 -30 -29 -67 -12 -36 -31 -79 -41 -94 -11 -15
-20 -30 -20 -34 0 -10 -43 -55 -53 -55 -5 0 -21 -9 -36 -19 -34 -24 -131 -57
-192 -65 -25 -4 -70 -2 -100 5 -46 9 -62 19 -108 66 -56 59 -75 93 -85 158 -9
57 3 72 49 58 31 -10 37 -9 42 5 4 10 -1 21 -15 30 -20 13 -21 16 -6 43 12 24
19 28 40 23 17 -4 29 -2 35 7 14 22 11 29 -11 29 -16 0 -20 7 -20 34 0 57 6
64 53 59 27 -3 49 1 61 10 30 22 11 40 -35 32 -21 -4 -47 -4 -59 0 -30 9 -25
44 8 55 63 23 64 24 50 43 -12 17 -16 17 -50 2 -48 -19 -50 -19 -72 11 -18 25
-18 26 10 55 24 25 26 31 14 39 -21 14 -24 13 -50 -15 -34 -37 -54 -33 -45 8
5 17 8 48 9 67 1 29 -3 35 -19 35 -16 0 -21 -8 -25 -40 -6 -46 -33 -90 -50
-80 -6 4 -10 27 -8 52 1 35 -3 49 -17 59 -10 8 -21 12 -23 9 -2 -2 -5 -29 -5
-60 -1 -30 -4 -55 -8 -55 -4 0 -14 12 -24 26 -20 31 -45 18 -37 -21 3 -17 0
-25 -9 -25 -22 0 -136 83 -152 110 -23 40 -28 99 -12 138 8 19 15 44 15 55 0
28 103 126 161 154 47 22 128 49 169 56 50 8 166 7 230 -3z m430 -382 c0 -16
-3 -19 -11 -11 -6 6 -8 16 -5 22 11 17 16 13 16 -11z m-607 -199 c42 -28 61
-65 59 -117 -3 -65 -13 -91 -45 -114 -18 -12 -79 -70 -137 -128 -94 -96 -157
-141 -200 -146 -99 -12 -148 -1 -198 44 -68 62 -101 165 -69 217 16 26 144
146 182 170 66 42 159 85 184 85 14 0 33 5 41 11 27 18 142 5 183 -22z"/>
<path d="M6965 11380 c-56 -11 -159 -65 -204 -105 -31 -28 -41 -46 -51 -94 -7
-33 -11 -73 -8 -89 l4 -29 -65 -1 c-84 -3 -92 -6 -176 -62 -80 -54 -85 -62
-120 -185 -28 -100 -31 -157 -11 -230 36 -137 112 -212 321 -318 37 -19 202
-50 264 -50 167 0 321 33 405 87 168 108 246 235 246 407 0 96 -23 172 -66
223 -19 22 -34 42 -34 46 0 3 -33 23 -74 44 -58 30 -84 38 -126 38 l-53 -1 7
47 c3 25 12 49 18 53 8 5 12 30 11 68 -2 49 -7 68 -28 95 -44 57 -145 79 -260
56z m174 -94 c19 -11 28 -27 36 -69 6 -30 8 -63 4 -73 -4 -11 -8 -35 -8 -55
-1 -20 -8 -42 -16 -49 -8 -7 -15 -19 -15 -28 0 -18 -45 -98 -72 -128 -11 -12
-21 -30 -22 -40 -3 -24 -55 -43 -117 -43 -37 -1 -50 4 -73 28 -23 24 -29 43
-41 137 -8 60 -15 137 -15 171 l0 63 43 27 c96 61 129 73 202 73 40 -1 81 -7
94 -14z m-529 -331 c-18 -21 -3 -35 30 -28 32 6 60 -10 60 -34 0 -7 -21 -23
-47 -34 -40 -17 -45 -22 -31 -30 12 -7 26 -4 50 11 42 26 84 26 98 1 8 -16 2
-26 -40 -64 -28 -25 -50 -50 -50 -56 0 -24 31 -9 73 34 30 32 48 44 60 39 23
-9 21 -34 -8 -100 -23 -52 -25 -82 -5 -69 4 3 22 34 39 70 30 66 47 77 81 55
12 -7 12 -16 3 -52 -12 -45 -10 -58 11 -58 15 0 26 30 26 71 0 15 6 32 14 38
18 15 30 -4 40 -61 5 -28 12 -38 26 -38 21 0 35 16 21 24 -12 8 -23 70 -15 89
13 35 34 26 66 -28 18 -30 38 -55 45 -55 20 0 26 20 11 38 -18 21 -68 112 -68
123 0 23 33 5 58 -31 15 -21 35 -39 45 -40 24 0 21 17 -8 56 -25 32 -32 54
-17 54 22 -1 57 -32 71 -61 20 -42 44 -44 51 -4 4 20 0 38 -12 54 -20 26 -23
41 -9 41 5 0 17 -18 27 -40 20 -44 37 -55 54 -34 10 11 10 17 0 29 -6 8 -9 18
-6 24 4 5 -1 17 -10 25 -14 15 -12 16 18 16 44 -1 59 -14 96 -83 35 -65 39
-89 28 -167 -15 -102 -44 -171 -95 -220 -106 -104 -188 -140 -361 -160 -98
-11 -264 3 -320 28 -69 30 -166 97 -220 152 -53 53 -56 58 -68 132 -9 53 -10
89 -3 115 5 21 12 61 16 88 9 66 21 85 50 85 16 0 33 12 50 34 24 32 58 48 78
38 4 -2 3 -10 -3 -17z"/>
<path d="M6710 10827 l-25 -10 24 -5 c13 -2 28 1 33 6 15 15 -4 21 -32 9z"/>
<path d="M5243 11351 c-36 -26 -40 -33 -41 -77 -1 -26 -5 -50 -7 -53 -3 -3
-23 -6 -45 -7 -53 -3 -100 -37 -100 -73 0 -16 7 -34 15 -41 8 -7 15 -22 15
-35 0 -25 29 -55 53 -55 20 0 31 -16 17 -25 -5 -3 -10 -26 -10 -50 0 -34 5
-47 22 -59 20 -15 21 -16 5 -34 -42 -46 -8 -107 75 -135 45 -16 61 -17 96 -8
58 16 95 71 96 143 1 49 3 52 35 63 43 14 64 42 57 77 -5 24 -1 30 27 42 56
23 87 63 87 111 0 35 -7 49 -38 83 -30 32 -46 42 -70 42 -25 0 -37 8 -61 44
-23 33 -42 48 -78 60 -68 23 -104 20 -150 -13z m163 -56 c30 -20 39 -73 17
-97 -19 -21 -17 -24 17 -33 19 -5 31 0 49 19 19 21 27 23 46 14 29 -13 49 -59
40 -88 -9 -29 -63 -51 -109 -43 -32 5 -36 3 -37 -16 -1 -11 -2 -26 -3 -33 -1
-6 14 -16 32 -22 l34 -12 -27 -14 c-23 -12 -32 -12 -70 2 -41 16 -46 16 -61 1
-14 -15 -13 -18 10 -39 65 -61 34 -184 -47 -184 -69 0 -110 47 -69 79 11 9 23
30 27 48 6 29 4 32 -22 35 -39 4 -45 44 -8 58 51 20 43 77 -11 72 -35 -3 -94
31 -94 55 0 19 38 63 55 63 7 0 26 -7 42 -15 58 -29 83 9 42 64 -18 25 -19 31
-7 51 26 44 113 64 154 35z"/>
<path d="M14735 10869 c-44 -17 -84 -34 -89 -39 -14 -14 -9 -70 7 -89 8 -9 17
-25 21 -37 3 -11 18 -45 34 -75 l27 -54 65 -3 c77 -4 100 -15 100 -46 0 -31
-15 -42 -86 -64 -43 -13 -60 -23 -62 -37 -1 -11 22 -58 52 -104 45 -69 53 -88
45 -103 -25 -47 24 -56 109 -21 43 18 122 91 122 112 0 9 11 33 25 53 14 20
25 41 25 46 0 4 9 27 20 50 24 48 24 74 6 164 -10 43 -27 85 -50 118 -20 29
-36 56 -36 61 0 15 -104 75 -152 87 -68 17 -93 14 -183 -19z m188 -33 c71 -30
156 -102 157 -134 0 -7 8 -25 17 -39 24 -36 25 -175 2 -218 -9 -16 -27 -54
-40 -82 -12 -29 -26 -53 -30 -53 -4 0 -10 -8 -13 -17 -6 -16 -65 -53 -85 -53
-9 0 -82 95 -101 131 -16 28 -7 46 27 53 16 4 43 15 61 26 30 18 32 24 32 73
0 39 -5 58 -17 69 -28 23 -81 41 -104 35 -45 -12 -88 31 -116 118 -12 37 -11
41 9 55 65 46 144 60 201 36z"/>
<path d="M8015 10830 c-138 -23 -323 -121 -408 -217 -30 -34 -99 -168 -110
-214 -24 -97 6 -346 53 -444 11 -23 20 -51 20 -62 0 -11 8 -31 19 -44 10 -13
21 -33 25 -44 3 -11 19 -35 36 -53 16 -18 33 -38 37 -45 20 -31 161 -142 222
-174 34 -19 210 -53 269 -53 48 0 228 30 304 50 74 21 161 81 255 180 91 95
136 213 134 347 -1 45 -6 94 -11 109 -6 15 -15 46 -20 69 -19 83 -93 258 -136
320 -82 121 -234 245 -328 269 -40 10 -308 15 -361 6z m280 -73 c113 -6 189
-52 306 -187 38 -44 84 -123 109 -185 13 -33 27 -64 31 -70 12 -16 29 -89 38
-165 9 -66 7 -80 -20 -163 -16 -49 -29 -95 -29 -100 0 -5 -10 -23 -22 -40 -28
-38 -44 -65 -57 -93 -14 -32 -102 -103 -136 -110 -16 -3 -37 -12 -45 -19 -14
-12 -72 -27 -212 -56 -55 -12 -162 -4 -248 17 -14 4 -35 7 -47 8 -12 0 -20 3
-18 5 5 4 -31 32 -65 50 -14 7 -44 40 -68 72 -23 33 -53 64 -66 68 -52 20
-123 172 -156 336 -16 77 3 300 30 360 19 40 111 145 128 145 5 0 17 10 28 21
55 63 269 121 409 112 22 -1 72 -4 110 -6z"/>
<path d="M7883 10618 c-4 -7 -8 -35 -8 -61 0 -41 3 -49 22 -53 12 -3 39 2 60
13 32 15 39 24 41 53 3 24 -2 38 -14 47 -23 17 -90 17 -101 1z m72 -48 c0 -22
-29 -18 -33 3 -3 14 1 18 15 15 10 -2 18 -10 18 -18z"/>
<path d="M8239 10583 c-12 -32 -2 -71 23 -87 24 -15 78 37 78 75 0 29 -15 39
-61 39 -23 0 -32 -6 -40 -27z m61 -17 c0 -16 -18 -31 -27 -22 -8 8 5 36 17 36
5 0 10 -6 10 -14z"/>
<path d="M8073 10238 c-28 -14 -46 -63 -32 -89 10 -20 14 -19 62 14 22 15 27
26 25 50 -3 35 -20 42 -55 25z"/>
<path d="M7740 10165 c0 -8 9 -15 20 -15 16 0 20 -7 20 -30 0 -20 -5 -30 -15
-30 -17 0 -20 -26 -4 -36 13 -8 56 41 65 75 5 17 2 28 -11 38 -26 18 -75 17
-75 -2z"/>
<path d="M8552 10023 c-30 -6 -54 -45 -47 -75 5 -18 17 -28 43 -36 42 -13 51
-9 35 17 -9 15 -7 22 10 40 17 16 19 25 11 38 -12 19 -20 22 -52 16z"/>
<path d="M13650 10742 c-108 -12 -239 -76 -343 -167 -94 -81 -100 -89 -167
-175 -96 -125 -144 -204 -152 -250 -17 -99 -20 -118 -26 -190 -13 -145 18
-352 67 -444 40 -76 319 -346 357 -346 8 0 145 -58 169 -72 48 -27 399 -22
545 7 84 17 324 171 294 187 -5 3 -4 3 3 2 10 -2 31 19 102 103 10 13 39 65
66 118 43 87 47 102 54 197 4 57 7 168 6 248 -1 128 -4 155 -28 230 -71 218
-176 341 -382 447 -77 40 -102 49 -210 77 -77 21 -283 37 -355 28z m369 -106
c175 -43 244 -78 358 -181 53 -47 93 -118 145 -259 37 -102 42 -161 30 -384
l-10 -183 -51 -104 c-43 -88 -63 -115 -132 -183 -108 -107 -225 -168 -344
-182 -421 -46 -562 -9 -785 210 -97 95 -153 202 -176 337 -8 48 -20 106 -26
128 -13 52 -14 78 -1 145 45 228 72 295 167 408 86 103 103 118 231 194 154
92 179 99 343 92 83 -3 149 -13 251 -38z"/>
<path d="M14186 10343 c9 -36 12 -39 20 -19 7 20 -1 46 -16 46 -6 0 -8 -11 -4
-27z"/>
<path d="M13817 9693 c-14 -13 -6 -23 18 -23 16 0 25 6 25 15 0 15 -31 21 -43
8z"/>
<path d="M13346 9632 c-7 -12 34 -73 45 -66 16 10 9 53 -10 64 -24 12 -28 12
-35 2z"/>
<path d="M13860 9500 c14 -6 35 -23 47 -38 16 -18 23 -22 23 -11 0 26 -23 47
-60 53 -31 5 -32 5 -10 -4z"/>
<path d="M9520 10141 c-67 -14 -113 -53 -116 -99 -1 -15 -2 -32 -3 -38 0 -7
-12 -15 -25 -18 -38 -9 -56 -34 -56 -77 0 -37 -2 -39 -31 -39 -82 0 -137 -39
-184 -130 -18 -34 -18 -35 11 -87 15 -29 32 -53 36 -53 20 0 5 -33 -21 -48
-61 -34 -77 -116 -36 -178 35 -54 137 -85 200 -63 29 11 35 10 56 -11 13 -12
48 -33 76 -47 51 -24 53 -24 82 -7 28 17 31 17 48 1 23 -20 85 -28 129 -15 36
9 84 68 84 100 0 11 8 18 19 18 11 0 44 10 75 21 60 23 76 48 76 118 0 27 -8
44 -37 73 l-37 38 29 29 c25 24 30 38 32 87 3 79 -26 124 -94 150 -65 24 -67
26 -55 75 14 55 0 88 -59 150 -55 56 -105 69 -199 50z m144 -46 c20 -9 41 -13
46 -10 6 3 7 -1 4 -10 -4 -10 1 -21 12 -30 27 -19 27 -138 0 -177 -21 -32 -18
-34 58 -41 66 -6 100 -33 104 -82 6 -67 -4 -84 -63 -111 -30 -14 -55 -31 -55
-37 0 -7 27 -24 60 -39 125 -55 97 -151 -44 -152 l-61 -1 3 -38 c2 -26 -4 -47
-18 -67 -36 -50 -119 -50 -135 0 -8 25 -41 26 -55 1 -15 -29 -44 -34 -86 -16
-56 23 -88 59 -80 91 6 22 4 25 -16 22 -13 -2 -27 -13 -33 -25 -17 -40 -96
-38 -152 4 -31 23 -57 81 -47 106 9 21 57 51 93 57 46 7 49 29 9 55 -18 11
-44 43 -59 72 l-27 52 29 45 c35 52 69 67 159 68 33 0 63 4 65 8 3 5 -2 21
-10 36 -29 57 -13 84 48 84 39 0 39 0 32 33 -12 52 -8 71 22 94 23 19 41 23
94 23 37 0 83 -7 103 -15z"/>
<path d="M10693 9912 c-73 -80 -112 -134 -113 -155 0 -21 28 -63 85 -127 22
-25 51 -60 64 -78 42 -56 79 -72 165 -72 l76 0 50 50 c58 58 76 61 166 29 32
-11 67 -21 77 -22 9 -1 17 -5 17 -9 0 -4 6 -8 14 -8 17 0 116 -88 116 -103 0
-16 46 -69 172 -198 80 -82 113 -109 143 -118 55 -15 60 -15 154 19 82 30 86
30 135 15 70 -20 111 -47 140 -92 46 -72 127 -139 235 -193 53 -27 71 -32 115
-28 77 7 190 46 226 79 29 27 31 33 24 72 -3 23 -7 81 -8 128 -2 126 -24 144
-113 90 -27 -16 -58 -32 -70 -35 -33 -10 -84 18 -113 61 -29 44 -184 202 -220
226 -85 54 -214 60 -295 12 -52 -30 -108 -32 -151 -6 -17 10 -57 54 -89 97
-152 202 -390 394 -488 394 -65 0 -147 -53 -190 -122 -39 -62 -114 -25 -226
110 -19 23 -37 42 -40 41 -3 0 -29 -26 -58 -57z m225 -152 c96 -25 100 -25
119 10 43 79 106 131 161 132 102 2 327 -186 477 -397 36 -51 92 -101 129
-115 38 -14 92 -13 108 3 22 21 118 57 154 57 42 0 122 -27 154 -52 53 -41
142 -133 186 -192 25 -33 58 -69 73 -78 42 -28 100 -23 155 13 64 43 70 35 73
-102 l1 -109 -61 -31 c-51 -26 -74 -32 -137 -33 -72 -1 -79 1 -146 41 -77 46
-150 113 -201 185 -61 86 -177 115 -292 72 -35 -13 -77 -24 -94 -24 -49 0
-109 35 -151 89 -22 27 -59 66 -82 85 -23 20 -61 64 -83 98 -49 76 -85 106
-189 158 -90 45 -161 65 -196 56 -13 -3 -44 -27 -69 -52 -52 -52 -100 -65
-172 -45 -40 10 -111 79 -189 184 l-28 37 43 58 c24 31 52 67 63 80 l20 22 68
-70 c48 -48 80 -73 106 -80z"/>
<path d="M10105 9336 c-98 -20 -198 -63 -261 -114 -32 -26 -79 -60 -103 -76
-51 -33 -158 -138 -172 -170 -6 -11 -23 -43 -39 -71 -39 -64 -49 -88 -67 -155
-37 -139 -2 -402 72 -535 13 -22 30 -63 39 -91 57 -177 285 -371 501 -425 132
-33 437 -12 490 33 5 4 16 8 24 8 9 0 67 26 130 58 98 49 126 70 205 147 104
102 133 153 188 325 23 74 33 124 33 170 0 182 -48 390 -112 483 -15 23 -58
73 -95 112 -36 38 -75 80 -85 93 -48 59 -280 161 -473 208 -67 16 -193 16
-275 0z m310 -84 c62 -15 195 -61 229 -80 17 -9 45 -32 62 -49 17 -18 34 -33
38 -33 10 0 36 -27 77 -80 93 -120 172 -287 203 -425 17 -79 13 -274 -6 -312
-8 -15 -25 -47 -38 -71 -12 -24 -22 -55 -22 -70 0 -55 -107 -166 -219 -227
-20 -11 -54 -30 -76 -42 -52 -28 -217 -83 -268 -88 -289 -30 -346 -27 -394 25
-14 15 -42 36 -61 45 -57 28 -176 122 -209 164 -47 60 -159 322 -182 425 -23
107 -24 221 -4 298 13 53 64 156 111 225 24 36 132 133 148 133 6 0 25 14 41
31 17 17 81 55 144 85 91 44 128 56 185 62 72 7 168 1 241 -16z"/>
<path d="M10576 9042 c-3 -5 3 -25 12 -44 12 -26 25 -37 45 -40 22 -4 26 -1
22 13 -5 14 -1 16 14 12 26 -7 40 23 20 42 -17 16 -105 29 -113 17z"/>
<path d="M10110 8546 c0 -2 7 -17 15 -32 11 -21 15 -24 15 -11 0 25 23 16 30
-12 7 -31 23 -30 34 2 13 36 -7 57 -55 57 -22 0 -39 -2 -39 -4z"/>
<path d="M10719 8429 c-28 -28 -24 -104 6 -104 11 0 20 7 20 15 0 10 14 17 45
20 54 6 63 28 26 65 -30 30 -69 32 -97 4z"/>
<path d="M9949 8222 c-27 -3 -50 -36 -42 -59 6 -18 43 -16 43 1 0 22 19 29 27
10 4 -10 0 -21 -10 -29 -24 -17 -6 -40 21 -26 69 37 39 113 -39 103z"/>
<path d="M14974 8896 c-23 -14 -48 -36 -56 -48 -14 -21 -23 -23 -84 -21 -91 2
-151 -13 -171 -43 -26 -40 -14 -178 21 -245 27 -52 24 -68 -10 -69 -19 0 -54
-46 -54 -72 0 -14 10 -36 23 -50 19 -20 21 -29 13 -55 -7 -26 -4 -40 17 -76
32 -53 59 -73 131 -91 102 -27 182 1 228 81 19 31 22 33 42 20 56 -37 177 -60
191 -37 3 6 15 10 25 10 23 0 79 67 115 139 24 48 26 61 20 120 -6 59 -12 75
-52 129 -31 41 -58 66 -80 74 l-34 12 2 64 c2 73 -10 95 -79 145 -35 25 -54
32 -105 35 -52 2 -68 -1 -103 -22z m159 -30 c92 -39 116 -107 68 -189 -14 -25
-14 -29 -1 -37 8 -5 29 -10 45 -10 41 0 66 -19 105 -80 24 -37 33 -65 36 -107
5 -52 1 -64 -29 -118 -49 -88 -112 -115 -210 -89 -64 17 -75 27 -83 79 -8 55
-28 75 -52 52 -14 -15 -15 -23 -4 -63 15 -54 1 -86 -51 -120 -47 -30 -76 -35
-137 -20 -58 13 -103 46 -119 87 -11 30 6 59 35 59 28 1 57 27 51 44 -5 12
-17 14 -54 9 -37 -4 -52 -2 -62 10 -17 21 -6 54 21 63 19 6 89 8 114 3 23 -4
34 3 34 21 0 14 -11 22 -40 30 -74 20 -101 64 -108 178 -6 105 1 114 88 120
93 7 129 -4 145 -41 23 -51 50 -81 69 -74 24 9 19 51 -10 86 -36 43 -30 81 16
103 42 22 89 23 133 4z"/>
<path d="M13535 8491 c-68 -20 -216 -158 -231 -215 -3 -14 -10 -29 -15 -32
-18 -11 3 -24 39 -24 97 0 175 -63 206 -167 26 -87 50 -149 65 -167 8 -9 35
-31 60 -48 44 -30 50 -31 176 -36 98 -3 139 -9 165 -22 52 -27 127 -109 138
-152 6 -21 8 -38 6 -38 -12 0 52 -107 79 -132 79 -73 152 -96 247 -77 85 17
146 5 182 -34 15 -18 39 -44 52 -59 17 -19 35 -28 55 -28 21 0 35 8 49 28 11
15 45 43 75 62 31 19 58 41 61 48 4 8 -3 25 -14 39 -11 14 -20 31 -20 37 0 26
-100 172 -129 189 -55 32 -120 33 -200 2 -84 -32 -130 -28 -167 12 -18 19 -24
37 -24 69 0 23 -5 55 -12 71 -6 15 -12 30 -13 33 -1 3 -14 31 -30 62 -25 49
-37 61 -101 98 -100 57 -130 64 -257 56 -64 -4 -133 -2 -171 5 -57 10 -63 13
-74 42 -6 18 -14 64 -18 102 -8 86 -30 148 -75 207 -40 54 -76 77 -104 69z
m49 -72 c56 -49 87 -124 91 -218 4 -95 18 -128 65 -155 31 -19 53 -21 195 -22
183 -1 211 -5 282 -45 73 -42 118 -117 134 -226 5 -34 14 -72 20 -86 28 -62
144 -82 228 -39 88 44 162 22 217 -65 57 -88 77 -139 64 -163 -6 -11 -15 -20
-21 -20 -5 0 -26 -15 -45 -32 -20 -18 -40 -33 -44 -33 -5 0 -12 -3 -15 -7 -14
-13 -44 12 -71 57 -35 60 -50 63 -264 54 -71 -3 -111 11 -163 60 -36 33 -52
64 -78 148 -17 53 -31 76 -75 120 -81 81 -125 98 -264 98 -92 0 -123 4 -152
19 -40 19 -95 93 -104 136 -17 90 -28 117 -72 170 -38 47 -56 60 -92 70 -25 7
-51 14 -57 16 -24 7 -13 35 35 86 43 47 125 108 144 108 4 0 23 -14 42 -31z"/>
<path d="M12160 8347 c-49 -16 -107 -80 -166 -183 -76 -134 -89 -231 -49 -369
17 -58 79 -125 157 -169 83 -48 236 -46 330 3 71 37 132 82 166 122 29 34 39
56 48 108 6 38 7 81 2 101 -4 19 -8 48 -8 65 0 47 -77 193 -129 245 -60 60
-144 90 -245 89 -39 -1 -87 -6 -106 -12z m185 -42 c33 -9 83 -32 112 -51 43
-30 58 -49 92 -118 38 -75 42 -91 47 -183 5 -84 3 -107 -12 -135 -22 -44 -88
-103 -144 -129 -25 -11 -58 -28 -75 -37 -22 -13 -52 -17 -112 -15 -69 1 -88 5
-129 29 -83 49 -153 143 -154 207 0 18 5 27 16 27 12 0 15 6 11 23 -23 94 -20
109 50 242 45 83 80 114 163 142 48 16 66 15 135 -2z"/>
<path d="M11485 7785 c-338 -117 -335 -116 -335 -139 0 -6 25 -31 56 -56 62
-50 104 -113 104 -154 0 -71 -83 -150 -178 -171 -18 -4 -36 -13 -39 -21 -3
-10 -9 -11 -17 -5 -7 6 -46 3 -107 -8 -153 -27 -208 -84 -194 -199 4 -31 9
-60 11 -67 3 -6 -4 -23 -15 -36 l-19 -24 -74 25 c-40 14 -92 25 -115 25 -36 0
-48 -6 -86 -43 -27 -26 -62 -79 -88 -130 -43 -86 -81 -130 -193 -227 l-47 -40
33 -47 c18 -26 43 -51 56 -57 15 -7 22 -19 22 -39 0 -50 95 -121 141 -107 18
6 65 81 61 98 -1 4 2 6 6 5 10 -4 72 66 72 81 0 6 4 11 8 11 5 0 16 17 25 39
10 21 40 60 67 85 59 55 59 55 175 -13 94 -55 127 -69 175 -72 59 -4 77 7 95
61 9 27 14 53 11 58 -8 13 -21 189 -18 252 1 41 7 60 25 77 29 29 145 63 217
63 147 1 265 33 324 88 47 44 103 126 114 166 15 52 8 186 -12 224 -9 17 -16
37 -17 44 -2 52 -151 268 -184 267 -11 0 -38 -7 -60 -14z m76 -56 c38 -27 93
-113 135 -213 43 -101 48 -210 13 -278 -34 -67 -105 -135 -158 -153 -71 -23
-86 -26 -211 -34 -134 -10 -204 -28 -254 -66 -38 -29 -47 -50 -49 -112 -1 -57
11 -216 18 -235 10 -25 -13 -86 -36 -99 -31 -16 -77 -1 -164 56 -44 29 -97 60
-117 70 -36 16 -39 16 -70 -3 -46 -29 -90 -79 -119 -135 -13 -26 -44 -69 -69
-95 -25 -26 -57 -63 -72 -82 l-27 -35 -38 37 c-21 21 -49 48 -64 61 -14 12
-28 29 -32 37 -4 8 -14 25 -22 36 -15 21 -14 24 36 73 28 28 54 51 58 51 11 1
75 94 103 150 59 116 106 164 150 154 16 -3 39 -7 51 -9 12 -2 42 -11 67 -20
49 -18 100 -14 120 10 13 16 15 98 4 149 -4 17 0 43 11 67 22 47 73 74 160 84
79 9 206 40 247 61 39 20 61 45 93 106 22 42 24 52 15 99 -6 28 -10 54 -10 56
0 3 -25 31 -57 64 -31 32 -54 62 -51 65 12 12 266 99 301 103 5 1 22 -8 38
-20z"/>
<path d="M8340 7254 c-19 -7 -43 -13 -52 -13 -10 -1 -18 -4 -18 -9 0 -4 -12
-13 -27 -20 -41 -18 -95 -72 -129 -128 -39 -63 -77 -143 -77 -161 0 -7 -4 -13
-8 -13 -3 0 -9 -10 -12 -22 -3 -13 -15 -54 -26 -93 -25 -82 -29 -202 -11 -290
7 -32 14 -71 15 -85 8 -61 38 -156 65 -203 34 -60 211 -242 269 -277 23 -14
58 -35 77 -47 65 -42 268 -86 364 -78 144 12 228 50 322 147 68 70 90 114 103
203 7 45 -14 139 -41 180 -14 21 -15 34 -8 63 8 32 17 40 88 75 43 22 96 57
117 78 39 39 39 40 39 117 0 113 -21 174 -82 238 -52 56 -129 94 -187 94 -16
0 -70 -16 -120 -35 -89 -35 -127 -42 -146 -27 -5 4 -23 36 -40 71 -35 74 -123
162 -194 192 -131 57 -211 70 -281 43z m219 -99 c78 -31 130 -74 177 -147 34
-54 30 -106 -6 -73 -14 13 -17 12 -28 -5 -7 -11 -8 -20 -2 -20 20 0 30 -37 17
-64 -14 -31 -30 -33 -66 -7 -26 19 -28 19 -38 2 -10 -16 -6 -21 28 -36 57 -26
65 -39 40 -66 l-20 -22 -68 18 c-82 21 -115 24 -120 8 -5 -14 40 -37 106 -54
28 -7 51 -16 51 -21 0 -4 -9 -17 -20 -28 -18 -18 -28 -20 -80 -14 -59 6 -60 6
-60 -18 0 -23 4 -26 62 -32 34 -3 64 -9 67 -12 3 -3 -10 -18 -29 -34 -32 -27
-34 -30 -19 -45 15 -15 18 -15 32 -1 19 20 47 21 47 2 0 -7 10 -26 22 -41 17
-22 19 -31 10 -45 -9 -14 -8 -21 5 -31 13 -11 17 -10 28 5 12 16 18 17 50 6
28 -9 37 -19 42 -41 7 -34 43 -42 43 -9 0 26 34 44 49 26 8 -10 31 -99 31
-122 0 -2 9 -4 21 -4 19 0 20 4 13 66 l-7 67 41 -7 c65 -10 90 -23 106 -54 20
-39 37 -144 25 -158 -5 -6 -10 -19 -12 -30 -9 -54 -57 -110 -136 -159 -65 -40
-91 -45 -251 -47 -172 -1 -215 9 -317 80 -87 59 -238 210 -259 259 -27 64 -59
185 -71 273 -9 60 -4 193 8 235 34 119 43 145 72 200 111 217 229 273 416 200z
m531 -220 c0 -10 9 -13 33 -10 43 5 95 -21 141 -72 34 -38 38 -49 45 -117 6
-62 6 -101 2 -138 -1 -4 -61 -36 -133 -71 -101 -49 -161 -71 -248 -91 -110
-25 -118 -26 -160 -11 -25 9 -54 25 -66 36 -32 30 -47 100 -33 151 12 47 55
108 75 108 7 0 20 12 28 28 25 47 68 80 187 141 62 33 117 60 122 60 4 1 7 -6
7 -14z"/>
<path d="M6820 7105 c-43 -23 -176 -55 -229 -55 -66 0 -78 -19 -45 -72 14 -21
27 -51 30 -67 8 -38 -20 -91 -47 -91 -15 0 -19 -5 -15 -15 3 -9 0 -15 -10 -15
-8 0 -12 5 -9 10 4 6 -10 10 -33 10 -30 0 -55 10 -100 40 -33 22 -66 38 -74
35 -8 -3 -29 -25 -47 -48 -17 -23 -51 -55 -76 -72 -41 -27 -45 -33 -40 -60 3
-16 15 -38 27 -48 164 -131 299 -174 448 -143 86 18 134 43 190 98 43 42 57
66 111 182 44 97 17 328 -38 325 -10 0 -29 -7 -43 -14z m37 -53 c7 -4 17 -47
23 -95 10 -80 9 -92 -9 -130 -11 -23 -29 -62 -40 -87 -40 -89 -114 -147 -222
-174 -84 -21 -103 -20 -197 5 -70 18 -192 83 -192 102 0 4 -6 7 -13 7 -7 0
-17 8 -23 18 -10 15 -2 26 52 75 l63 57 66 -35 c81 -42 139 -46 194 -13 48 29
59 45 66 94 5 30 2 51 -10 74 -17 32 -16 34 1 47 10 7 32 13 48 13 17 0 63 11
101 25 83 28 77 27 92 17z"/>
<path d="M12711 6974 c-52 -8 -99 -18 -105 -24 -5 -5 -20 -10 -32 -10 -12 0
-32 -8 -45 -18 -13 -10 -39 -24 -57 -31 -18 -8 -36 -19 -40 -25 -4 -6 -30 -30
-57 -53 -28 -23 -57 -53 -65 -67 -7 -14 -18 -26 -24 -26 -6 0 -29 -21 -51 -47
-22 -25 -55 -63 -74 -82 -59 -63 -77 -94 -106 -176 -15 -44 -36 -105 -46 -135
-41 -114 -47 -303 -14 -429 8 -31 28 -84 45 -119 16 -34 30 -67 30 -74 0 -17
42 -98 52 -98 4 0 15 -14 23 -31 22 -42 119 -165 152 -194 15 -13 55 -47 88
-75 68 -59 100 -77 204 -114 155 -56 326 -45 562 35 30 10 61 19 68 19 21 0
178 104 274 181 63 51 71 60 108 129 13 25 29 52 35 60 12 14 75 204 94 280
37 150 45 375 16 460 -24 72 -94 220 -104 220 -4 0 -22 27 -40 60 -52 94 -230
262 -332 312 -105 51 -145 67 -195 73 -102 14 -272 13 -364 -1z m350 -65 c160
-35 332 -159 462 -334 91 -122 153 -267 164 -386 4 -43 -31 -331 -43 -350 -3
-5 -8 -22 -10 -37 -3 -15 -16 -55 -29 -89 -14 -34 -25 -70 -25 -80 0 -33 -85
-156 -131 -190 -225 -164 -380 -230 -595 -252 -230 -23 -443 95 -611 338 -36
53 -69 98 -73 101 -11 8 -38 63 -61 127 -12 32 -25 63 -29 68 -4 6 -10 40 -14
78 -4 37 -11 79 -17 94 -7 19 -5 68 7 172 20 180 35 209 207 406 237 270 368
342 629 344 64 1 141 -4 169 -10z"/>
<path d="M12911 6796 c-17 -20 -5 -41 33 -54 76 -28 102 -3 43 42 -38 29 -59
32 -76 12z"/>
<path d="M12845 6583 c-14 -15 -25 -31 -25 -35 0 -14 22 -20 56 -14 53 11 60
75 7 76 -7 0 -24 -12 -38 -27z"/>
<path d="M13446 6328 c-21 -29 -20 -33 6 -63 23 -26 56 -32 89 -15 26 15 24
42 -7 74 -33 32 -68 33 -88 4z m62 -42 c3 -13 -1 -17 -14 -14 -11 2 -20 11
-22 22 -3 13 1 17 14 14 11 -2 20 -11 22 -22z"/>
<path d="M12791 6111 c-8 -5 -12 -18 -8 -30 3 -12 1 -24 -4 -27 -21 -13 -6
-24 34 -24 46 0 77 21 77 53 0 30 -66 49 -99 28z m49 -41 c0 -5 -9 -10 -21
-10 -11 0 -17 5 -14 10 3 6 13 10 21 10 8 0 14 -4 14 -10z"/>
<path d="M12276 5985 c-8 -8 -19 -15 -25 -15 -24 0 -19 -20 8 -35 62 -32 115
-9 93 40 -13 29 -52 34 -76 10z"/>
<path d="M12352 5821 c-22 -14 -10 -55 21 -69 34 -16 46 -9 29 18 -14 23 -9
25 19 10 25 -14 25 -50 -1 -57 -23 -6 -27 -33 -6 -33 30 0 64 19 71 39 10 33
-2 56 -44 79 -41 23 -67 27 -89 13z"/>
<path d="M13062 5453 c-41 -20 -38 -44 6 -57 65 -18 118 41 56 64 -30 12 -22
13 -62 -7z"/>
<path d="M4580 6160 c-175 -19 -366 -87 -404 -145 -8 -12 -48 -50 -88 -83 -74
-61 -79 -69 -177 -257 -23 -44 -57 -157 -66 -220 -3 -22 -11 -69 -17 -105 -19
-109 -16 -323 6 -410 21 -84 130 -330 146 -330 4 0 20 -25 35 -55 16 -30 61
-88 100 -128 70 -74 206 -177 232 -177 8 0 42 -15 76 -33 34 -19 73 -36 87
-39 14 -3 58 -18 98 -32 138 -50 358 -63 482 -30 30 9 69 19 85 23 36 9 166
74 198 98 40 31 178 177 220 233 90 120 154 301 172 490 13 143 16 215 7 238
-5 15 -15 52 -22 82 -7 30 -21 70 -31 88 -10 18 -19 41 -19 51 0 24 -113 243
-158 306 -20 28 -60 76 -89 107 -29 31 -53 61 -53 67 0 6 -26 36 -57 67 -55
53 -138 100 -213 122 -19 6 -57 17 -85 26 -124 39 -334 60 -465 46z m285 -89
c39 -6 79 -14 90 -18 11 -3 29 -7 40 -9 92 -11 204 -57 272 -112 47 -38 192
-213 224 -270 11 -21 33 -57 49 -82 15 -25 29 -53 29 -62 1 -9 6 -20 11 -23
21 -13 82 -158 105 -248 12 -51 21 -110 19 -132 -2 -22 -6 -65 -10 -95 -3 -30
-8 -82 -10 -115 -2 -33 -8 -69 -13 -80 -16 -35 -61 -175 -61 -190 0 -27 -74
-126 -165 -220 -17 -17 -40 -42 -50 -56 -51 -63 -136 -113 -266 -155 -71 -23
-102 -28 -199 -28 -63 -1 -140 2 -170 5 -60 7 -224 59 -280 89 -19 11 -64 33
-100 49 -123 57 -222 143 -298 260 -68 105 -139 259 -161 353 -19 77 -20 97
-11 185 6 54 15 154 20 223 7 88 18 153 39 220 48 157 90 250 123 273 13 8 52
43 88 77 68 63 164 120 240 140 134 36 300 44 445 21z"/>
<path d="M4950 5930 c0 -11 7 -20 15 -20 8 0 15 -9 15 -20 0 -11 -4 -20 -10
-20 -5 0 -10 -9 -10 -20 0 -26 31 -27 53 -2 36 39 11 102 -39 102 -17 0 -24
-5 -24 -20z"/>
<path d="M5235 5610 c-15 -17 -16 -24 -7 -45 16 -34 35 -40 67 -19 36 23 50
51 34 70 -17 21 -73 18 -94 -6z"/>
<path d="M4551 5331 c-6 -11 -11 -29 -11 -40 0 -10 -5 -21 -12 -23 -21 -7 0
-38 27 -38 27 0 75 40 75 63 0 40 -62 70 -79 38z"/>
<path d="M5023 5240 c-32 -13 -44 -41 -30 -71 14 -28 49 -36 72 -17 63 51 65
69 13 87 -17 6 -31 11 -32 10 -1 0 -11 -4 -23 -9z"/>
<path d="M5352 4794 c-28 -20 -28 -51 0 -60 16 -5 27 -1 40 16 17 21 20 22 35
7 15 -14 15 -18 0 -41 -16 -24 -14 -56 3 -56 13 0 50 65 50 86 0 11 -7 30 -16
42 -18 27 -78 30 -112 6z"/>
<path d="M4450 4777 c-14 -7 -26 -22 -28 -34 -4 -26 30 -63 57 -63 22 0 71 37
71 54 0 39 -58 65 -100 43z"/>
<path d="M4150 4651 c-26 -50 0 -91 58 -91 74 0 110 60 57 94 -35 23 -102 21
-115 -3z m98 -39 c5 -15 -13 -15 -39 -1 -11 5 -17 14 -14 19 7 11 48 -3 53
-18z"/>
<path d="M7205 6153 c-66 -17 -109 -77 -111 -157 l-1 -60 -47 -2 c-30 -1 -58
-10 -81 -25 -47 -32 -47 -66 0 -118 40 -44 43 -57 16 -66 -11 -3 -31 -15 -46
-26 -23 -19 -25 -26 -20 -63 l7 -42 -49 0 c-85 0 -151 -63 -174 -164 -13 -57
26 -129 88 -159 26 -13 70 -26 97 -30 46 -6 49 -8 51 -38 6 -73 79 -146 157
-157 43 -7 48 -10 57 -41 24 -87 119 -153 232 -162 56 -5 73 -2 121 21 46 22
61 35 77 70 12 23 21 52 21 64 0 12 1 22 3 22 1 0 28 -9 59 -20 58 -20 100
-16 138 15 8 7 29 20 47 29 43 22 73 74 73 127 0 48 -12 75 -28 65 -6 -4 -8
-17 -3 -34 9 -34 8 -41 -7 -77 -19 -46 -116 -105 -171 -105 -14 0 -46 9 -70
21 -59 26 -71 20 -71 -35 0 -34 -6 -51 -22 -67 -48 -46 -81 -59 -146 -59 -75
0 -142 30 -191 86 -28 31 -32 42 -26 72 3 19 11 42 17 52 13 21 4 50 -15 50
-8 0 -19 -11 -25 -24 -25 -55 -124 -36 -170 34 -34 50 -26 70 33 90 36 12 51
22 53 37 4 29 -45 37 -95 16 -50 -20 -143 -11 -184 18 -16 11 -38 38 -49 60
-20 39 -20 39 -1 77 35 66 64 89 124 96 30 4 66 4 80 0 40 -9 47 20 13 55 -36
38 -34 65 10 90 19 12 44 21 55 21 30 0 23 19 -26 71 -56 60 -58 81 -8 108 33
17 72 13 105 -10 40 -29 57 -13 34 32 -39 77 -8 171 66 205 50 23 138 7 223
-41 71 -39 75 -40 75 -22 0 16 -85 63 -159 88 -52 18 -95 22 -136 12z"/>
<path d="M7505 6041 c-3 -6 9 -26 28 -44 63 -60 110 -192 94 -259 -8 -30 -85
-113 -113 -122 -29 -9 -21 -46 10 -46 29 0 63 -25 81 -60 20 -39 19 -57 -5
-77 -40 -34 -23 -56 34 -43 24 5 50 4 69 -2 56 -19 133 -75 157 -113 15 -25
26 -33 33 -26 12 12 -13 54 -52 89 -34 30 -135 82 -160 82 -22 0 -31 19 -31
63 0 23 -10 40 -45 73 -25 23 -45 43 -45 46 0 2 20 25 45 51 57 61 71 108 54
185 -7 31 -20 63 -29 72 -32 35 -60 70 -60 78 0 17 -58 64 -65 53z"/>
<path d="M6060 6009 c-14 -5 -37 -11 -51 -13 -14 -3 -46 -23 -70 -44 -47 -42
-72 -101 -74 -177 -1 -63 23 -166 48 -199 12 -17 29 -43 37 -59 17 -34 101
-91 155 -106 53 -13 161 1 220 29 120 58 175 211 124 341 -27 69 -61 104 -175
181 -70 47 -84 53 -134 54 -30 1 -66 -3 -80 -7z m129 -41 c50 -17 112 -60 174
-121 89 -87 97 -167 31 -303 -19 -39 -34 -55 -62 -67 -69 -29 -116 -40 -173
-39 -64 1 -99 14 -99 38 0 8 -10 18 -22 23 -59 23 -119 121 -133 214 -8 58 10
152 37 190 44 62 163 93 247 65z"/>
<path d="M6087 5797 c-10 -6 -20 -28 -23 -48 -5 -29 -1 -41 22 -69 l29 -33
-28 7 c-43 10 -31 -10 16 -28 67 -25 101 -21 167 23 12 9 12 12 -2 28 -8 10
-21 35 -27 55 -19 57 -112 97 -154 65z m98 -40 c52 -45 29 -129 -27 -98 -57
31 -71 49 -64 86 6 30 11 35 36 35 16 0 41 -10 55 -23z"/>
<path d="M10373 5790 c-18 -11 -33 -23 -33 -27 0 -5 -4 -14 -9 -22 -7 -10 -13
-11 -31 -1 -31 17 -108 14 -152 -4 -20 -9 -52 -35 -73 -58 -35 -41 -36 -45
-30 -98 17 -140 43 -189 118 -221 31 -13 32 -18 13 -44 -24 -34 11 -79 72 -91
26 -5 32 -10 26 -23 -30 -69 24 -209 86 -223 8 -2 21 -9 28 -15 32 -30 100
-12 154 41 l37 36 6 -29 c6 -28 47 -57 66 -46 5 4 9 1 9 -6 0 -6 8 -9 18 -7
10 3 23 -1 30 -9 9 -9 40 -13 100 -13 99 0 141 18 159 66 42 111 41 104 23
138 -9 18 -26 46 -39 64 l-22 32 28 11 c29 11 103 77 103 91 0 5 9 21 19 36
15 22 18 39 14 89 l-5 62 -92 88 c-86 83 -96 90 -178 117 l-87 29 -42 -22 -42
-22 -41 39 c-23 22 -51 45 -63 51 -36 19 -134 14 -170 -9z m175 -30 c51 -31
80 -62 84 -90 2 -17 10 -26 26 -28 18 -3 22 1 22 22 0 35 30 49 88 40 69 -10
140 -48 205 -112 71 -69 87 -98 87 -154 0 -83 -88 -176 -168 -180 -50 -2 -56
-20 -13 -43 32 -16 75 -67 85 -101 9 -29 -20 -103 -52 -133 -24 -22 -32 -23
-132 -19 -129 4 -156 17 -166 79 -4 22 -12 43 -18 45 -7 3 -38 -20 -69 -51
-54 -52 -73 -60 -122 -55 -30 3 -91 66 -105 110 -15 45 -6 105 17 118 9 6 13
16 9 28 -5 16 -13 19 -46 16 -29 -3 -47 1 -60 13 -28 25 -25 34 15 51 45 19
47 44 3 44 -40 0 -126 52 -137 83 -4 12 -14 55 -21 95 -16 87 -8 108 59 156
55 40 136 43 174 8 30 -29 57 -20 57 19 0 17 8 34 22 43 33 23 115 21 156 -4z"/>
<path d="M8839 5370 c-47 -8 -125 -47 -170 -85 -37 -30 -79 -91 -79 -113 0
-11 -7 -25 -15 -32 -8 -7 -13 -16 -10 -20 3 -5 1 -11 -4 -14 -8 -6 -19 -54
-27 -131 -6 -48 32 -245 50 -263 25 -25 115 -23 199 4 92 31 107 48 84 103
-32 74 -30 95 11 128 20 16 43 33 50 37 21 13 111 -14 127 -37 16 -23 85 -35
85 -15 0 14 98 105 133 124 24 13 28 20 22 42 -4 15 -23 41 -43 57 -37 30
-122 105 -177 154 -62 56 -145 78 -236 61z m166 -112 c64 -34 220 -172 210
-187 -13 -21 -108 -86 -122 -83 -9 2 -28 13 -44 24 -19 14 -48 22 -98 26 l-70
5 -39 -39 c-60 -61 -72 -103 -47 -181 9 -29 -14 -40 -94 -45 l-64 -3 -14 70
c-17 91 -18 139 -4 198 6 27 9 52 6 57 -3 4 -2 10 3 12 4 1 20 24 35 50 78
134 202 169 342 96z"/>
<path d="M11645 4924 c-245 -54 -317 -87 -341 -154 -18 -49 -17 -114 2 -158 9
-20 23 -59 31 -86 15 -48 14 -50 -9 -68 -13 -10 -40 -18 -65 -18 -23 0 -45 -4
-48 -10 -3 -5 -15 -10 -26 -10 -33 0 -92 -40 -121 -81 -15 -22 -37 -67 -49
-101 -18 -54 -21 -77 -15 -164 6 -106 14 -132 73 -221 44 -69 159 -183 209
-208 21 -11 46 -26 55 -33 33 -26 210 -63 294 -61 110 2 311 57 386 105 24 16
57 35 73 44 35 20 149 113 194 160 43 45 57 71 77 149 24 93 6 267 -36 343 -5
10 -9 25 -9 34 0 9 -25 64 -56 122 -66 128 -119 177 -189 177 -48 0 -125 -32
-125 -52 0 -14 -49 -38 -58 -28 -9 9 -32 79 -32 100 -1 11 -24 65 -53 120
l-52 100 -45 2 c-25 0 -54 -1 -65 -3z m67 -101 c47 -53 80 -145 95 -256 7 -61
18 -120 23 -129 32 -57 -10 -178 -74 -218 -43 -26 -127 -34 -170 -16 -36 15
-86 73 -86 99 0 10 -4 17 -8 17 -9 0 -52 98 -52 118 0 16 -24 96 -51 170 -19
55 -24 98 -13 127 9 23 55 44 164 76 112 33 151 35 172 12z m483 -360 c76
-147 100 -229 99 -338 -1 -113 -21 -163 -94 -231 -29 -27 -65 -61 -81 -76 -15
-16 -31 -28 -35 -28 -4 0 -12 -6 -18 -13 -14 -17 -132 -69 -221 -98 -57 -19
-92 -24 -190 -24 -112 0 -128 2 -236 38 -225 74 -322 187 -336 391 -5 87 -4
97 21 150 30 63 61 95 109 113 62 22 75 17 153 -61 41 -40 74 -78 74 -83 0 -5
-20 -19 -45 -31 -44 -21 -59 -42 -31 -42 7 0 34 11 60 25 71 38 90 13 36 -45
-16 -18 -30 -36 -30 -41 0 -22 32 -5 68 36 37 42 64 56 76 37 2 -4 7 -29 10
-55 6 -52 22 -90 35 -83 4 3 6 31 3 62 -3 41 -1 59 9 65 25 16 38 9 70 -38 37
-54 65 -83 79 -83 21 0 9 34 -25 71 -19 22 -35 45 -35 53 0 21 59 42 79 28 67
-48 103 -64 114 -52 9 9 6 16 -13 28 -13 10 -36 27 -50 38 -24 22 -24 22 -8
58 l17 35 71 -30 c74 -31 90 -31 90 3 0 17 -5 19 -27 15 -18 -3 -39 3 -65 20
-35 22 -39 28 -36 61 l3 37 90 0 c80 0 90 2 93 19 3 16 0 18 -23 12 -15 -4
-52 -4 -81 0 -74 9 -71 30 6 46 59 12 84 33 54 45 -8 3 -27 0 -41 -6 -14 -6
-27 -10 -29 -8 -2 2 7 26 21 53 34 67 66 81 120 49 32 -18 49 -41 90 -122z"/>
<path d="M13127 4589 c-75 -12 -115 -35 -198 -118 -102 -103 -122 -159 -105
-309 10 -84 52 -164 117 -222 21 -20 39 -39 39 -43 0 -15 53 -87 64 -87 6 0
31 28 56 61 25 33 70 87 101 119 l56 59 -49 48 c-68 67 -83 138 -37 179 26 23
55 13 116 -41 28 -25 55 -45 60 -45 14 1 71 58 86 87 8 15 22 56 31 91 9 35
23 73 31 85 8 12 15 25 15 28 0 9 -85 59 -100 59 -6 0 -30 9 -53 19 -67 31
-154 42 -230 30z m225 -63 c20 -9 39 -20 42 -25 4 -5 20 -12 36 -16 30 -7 40
-31 20 -51 -5 -5 -16 -38 -24 -73 -15 -62 -34 -94 -69 -113 -14 -7 -26 -2 -57
26 -50 45 -67 49 -153 37 -4 0 -17 -22 -29 -47 -18 -41 -19 -51 -7 -91 7 -27
28 -62 51 -86 l38 -41 -37 -40 c-45 -47 -49 -52 -87 -100 -28 -36 -49 -47 -44
-23 1 6 -29 44 -68 83 -60 61 -73 79 -86 130 -45 166 -31 238 65 340 65 70 97
91 165 108 54 14 193 4 244 -18z"/>
<path d="M6525 4548 c-89 -9 -155 -34 -230 -87 -27 -20 -58 -41 -69 -46 -29
-16 -65 -94 -72 -158 -7 -57 11 -167 27 -167 4 0 17 -18 28 -41 26 -48 21 -58
-46 -91 -47 -23 -114 -91 -140 -141 -8 -17 -13 -45 -10 -70 4 -40 7 -51 39
-123 15 -34 128 -164 143 -164 6 0 23 -11 39 -25 42 -36 136 -30 182 13 10 10
61 46 112 80 l93 62 15 -36 c24 -57 76 -122 112 -139 45 -22 146 -36 207 -28
61 7 174 65 226 116 75 72 129 227 129 365 0 73 -32 201 -61 249 -65 107 -209
255 -290 298 -257 138 -291 148 -434 133z m140 -99 c112 -33 203 -71 221 -91
10 -10 21 -18 26 -18 36 0 218 -179 264 -259 29 -51 46 -135 45 -219 -2 -193
-40 -307 -121 -360 -63 -41 -123 -55 -217 -50 -67 3 -85 8 -130 37 -46 28 -55
39 -68 84 -8 28 -15 61 -15 74 0 20 3 22 18 13 9 -6 42 -26 72 -45 50 -32 56
-34 68 -18 19 26 16 30 -48 59 -44 20 -60 32 -60 47 0 17 5 18 33 12 17 -3 52
-9 75 -12 41 -5 43 -4 40 18 -3 21 -9 24 -48 27 -25 2 -49 7 -54 13 -6 5 -20
9 -33 9 -13 0 -23 5 -23 10 0 21 41 50 70 50 23 0 30 5 30 19 0 16 -8 20 -42
23 -61 4 -55 23 22 78 66 47 84 75 55 86 -10 4 -26 -3 -43 -19 -30 -28 -100
-67 -119 -67 -27 0 -11 33 42 85 30 31 55 62 55 70 0 31 -24 24 -64 -19 -23
-25 -47 -46 -54 -46 -7 0 -12 -4 -12 -10 0 -14 -26 -12 -38 3 -8 9 -4 31 13
80 19 57 21 69 9 74 -25 9 -41 -5 -49 -44 -5 -21 -9 -41 -10 -45 -2 -5 -3 -19
-4 -33 -1 -16 -7 -25 -17 -25 -9 0 -14 6 -11 13 2 6 -2 25 -10 40 -8 16 -18
47 -21 70 -8 46 -36 63 -47 28 -7 -22 -56 -43 -75 -31 -21 13 -40 0 -40 -26 0
-22 -4 -24 -45 -24 -40 0 -45 3 -51 28 -4 15 -12 30 -18 34 -15 10 -10 101 8
136 15 30 103 110 146 132 65 35 176 38 275 9z m-185 -345 c11 -26 20 -50 20
-54 0 -10 -117 -12 -124 -2 -9 14 22 49 31 36 5 -6 18 -14 31 -18 17 -6 22 -3
22 11 0 11 -5 24 -11 30 -11 11 -6 43 5 43 3 0 14 -21 26 -46z m99 -118 c37
-20 101 -99 103 -129 4 -46 -39 -113 -101 -157 -22 -16 -60 -50 -85 -75 -25
-25 -48 -45 -52 -45 -3 0 -27 -17 -53 -39 -49 -40 -83 -61 -100 -61 -6 0 -47
35 -91 78 -54 53 -87 94 -104 132 -32 70 -26 100 25 136 21 15 39 30 39 33 0
11 136 81 218 111 85 32 158 38 201 16z"/>
<path d="M9295 4450 c-101 -20 -192 -52 -227 -79 -13 -10 -36 -25 -53 -34 -16
-8 -41 -25 -54 -36 -13 -12 -30 -21 -36 -21 -19 0 -84 -90 -97 -134 -6 -23
-24 -63 -39 -91 -16 -30 -30 -74 -34 -110 -3 -33 -11 -79 -16 -102 -5 -23 -7
-73 -4 -110 4 -38 7 -93 9 -123 2 -30 10 -73 19 -95 57 -148 83 -210 89 -213
5 -2 8 -8 8 -14 0 -6 11 -26 25 -44 14 -18 25 -37 25 -42 0 -6 4 -12 8 -14 5
-1 23 -24 41 -51 18 -26 40 -55 50 -65 10 -9 22 -24 27 -34 5 -9 37 -47 72
-86 96 -106 224 -162 437 -192 253 -35 430 9 624 153 103 78 141 127 184 242
75 201 87 261 82 413 -5 138 -27 237 -74 330 -34 66 -234 268 -340 342 -35 25
-87 63 -115 86 -68 54 -147 91 -226 104 -36 6 -97 18 -137 26 -91 18 -136 17
-248 -6z m326 -85 c130 -26 201 -58 289 -131 30 -24 67 -53 81 -62 15 -10 76
-62 136 -117 135 -124 203 -221 228 -331 19 -78 18 -239 0 -325 -22 -96 -65
-230 -80 -249 -7 -8 -22 -34 -34 -57 -28 -57 -156 -165 -245 -207 -122 -58
-217 -72 -379 -56 -145 14 -275 44 -337 77 -71 40 -173 129 -200 177 -14 24
-59 94 -101 157 -98 148 -147 274 -161 414 -11 110 -6 214 11 225 6 3 16 34
22 68 6 35 22 78 35 98 13 19 33 54 45 77 11 23 52 72 91 108 78 75 178 124
283 140 33 5 76 13 95 18 41 9 67 7 221 -24z"/>
<path d="M9334 4165 c-25 -18 -9 -46 34 -59 39 -11 62 -2 62 22 0 37 -63 62
-96 37z"/>
<path d="M9963 4014 c-34 -15 0 -74 43 -74 30 0 31 13 2 33 -20 14 -21 16 -5
16 10 1 32 -6 48 -15 40 -20 36 -53 -7 -68 -18 -6 -29 -16 -27 -23 7 -21 39
-15 73 13 38 32 37 68 -1 97 -26 19 -102 32 -126 21z"/>
<path d="M9324 3943 c-65 -12 -69 -99 -7 -117 42 -11 79 11 88 54 11 50 -19
74 -81 63z m41 -29 c14 -6 13 -9 -6 -30 -29 -30 -49 -31 -49 -1 0 36 17 45 55
31z"/>
<path d="M9203 3269 c-6 -8 -10 -33 -10 -56 1 -37 5 -43 27 -48 15 -3 44 0 66
7 72 24 51 94 -33 105 -26 3 -42 1 -50 -8z m88 -35 c6 -8 10 -14 8 -15 -2 0
-19 -1 -37 -2 -38 -2 -49 7 -32 27 12 16 44 10 61 -10z"/>
<path d="M9662 3128 c4 -32 69 -63 98 -48 24 13 27 55 4 64 -9 3 -36 6 -61 6
-40 0 -44 -2 -41 -22z"/>
<path d="M7525 3271 c-41 -11 -95 -39 -95 -51 0 -6 -6 -10 -14 -10 -24 0 -86
-68 -108 -118 -35 -82 -35 -163 1 -280 17 -55 31 -108 31 -119 0 -10 18 -35
40 -57 22 -21 40 -42 40 -47 0 -10 115 -99 129 -99 5 0 14 -6 18 -14 13 -23
87 -56 149 -66 88 -15 127 -12 189 11 98 36 181 162 204 309 20 129 -13 232
-111 351 -68 82 -68 83 -161 129 -101 50 -243 78 -312 61z m177 -85 c91 -24
137 -48 189 -97 9 -9 21 -18 25 -20 21 -9 83 -99 107 -157 30 -71 35 -146 13
-195 -8 -18 -23 -52 -34 -77 -36 -83 -75 -125 -128 -141 -72 -20 -192 -14
-226 11 -15 11 -32 20 -38 20 -26 0 -159 150 -195 222 -35 68 -38 79 -39 169
-1 87 1 100 28 150 16 30 48 71 70 91 39 35 45 37 108 38 37 0 91 -6 120 -14z"/>
<path d="M7553 2956 c-27 -23 -28 -28 -28 -115 0 -55 5 -95 12 -102 6 -6 43
-14 81 -17 65 -4 71 -3 101 24 27 24 33 38 38 86 6 55 4 59 -29 92 -31 31 -88
56 -130 56 -9 0 -30 -11 -45 -24z m155 -64 c21 -27 15 -80 -13 -108 -21 -21
-33 -25 -73 -22 l-47 3 -6 55 c-9 76 -2 108 25 112 27 5 97 -20 114 -40z"/>
<path d="M9485 2490 c-70 -21 -115 -72 -137 -155 -9 -35 -16 -44 -28 -39 -8 3
-43 8 -76 11 l-62 6 -44 -45 c-47 -47 -57 -72 -54 -143 1 -36 -2 -46 -24 -60
-34 -23 -52 -64 -53 -122 0 -40 4 -50 32 -75 30 -27 38 -29 97 -26 64 3 64 3
64 -24 0 -21 11 -34 47 -59 27 -17 65 -38 87 -45 47 -17 148 -17 196 -1 38 13
81 69 103 133 8 25 18 38 28 35 59 -14 139 -23 162 -17 36 9 67 60 67 111 0
30 -7 46 -32 72 -30 31 -31 33 -14 52 10 11 20 38 23 61 5 33 0 53 -27 105
-18 36 -36 65 -41 65 -4 0 -28 22 -54 49 -65 68 -205 128 -260 111z m148 -79
c113 -53 204 -169 195 -248 -2 -22 -14 -34 -51 -53 -26 -14 -46 -31 -45 -38 2
-8 26 -22 53 -31 56 -19 77 -48 66 -89 -14 -52 -68 -63 -161 -34 -41 13 -58
25 -68 45 -15 31 -24 33 -42 12 -10 -12 -10 -18 0 -30 18 -21 15 -96 -4 -132
-26 -50 -61 -67 -146 -67 -62 -1 -84 4 -125 25 -42 21 -51 30 -53 56 -2 22 3
35 18 46 12 8 18 20 14 30 -5 13 -10 14 -37 2 -48 -19 -129 -28 -159 -16 -33
12 -43 46 -31 98 11 46 33 52 99 27 39 -15 47 -15 55 -3 7 10 2 20 -18 34 -64
47 -72 60 -66 106 7 54 45 106 82 114 42 9 118 -14 153 -47 17 -16 37 -27 45
-24 19 8 16 40 -7 61 -11 10 -20 31 -20 47 0 44 56 124 100 141 26 11 90 -3
153 -32z"/>
<path d="M7482 7653 c2 -11 14 -19 31 -21 22 -3 27 1 27 17 0 17 -6 21 -31 21
-24 0 -30 -4 -27 -17z"/>
<path d="M7239 7443 c-5 -15 -8 -38 -4 -50 4 -18 12 -23 39 -23 41 0 59 19 50
54 -12 49 -68 62 -85 19z"/>
</g>
</svg>
